<?xml version="1.0" encoding="utf-8"?>
<!-- Generator: Adobe Illustrator 17.0.0, SVG Export Plug-In . SVG Version: 6.00 Build 0)  -->
<svg version="1.2" baseProfile="tiny" id="Ebene_1" xmlns="http://www.w3.org/2000/svg" xmlns:xlink="http://www.w3.org/1999/xlink"
	 x="0px" y="0px" width="374.3141479px" height="129.3399353px" viewBox="0 0 374.3141479 129.3399353" xml:space="preserve">
<g display="none">
	<path display="inline" fill="#353535" d="M362.09198,0c0,25.5125675,0,51.025135,0,76.6301651
		c-1.7978516,0-3.5301514,0-5.4115601,0c0-23.6794548,0-47.3284836,0-71.0435944c-113.1061096,0-226.0643158,0-339.1591187,0
		c0,2.7871113,0,5.5249472,0,8.3303194c-1.8329763,0-3.5299616,0-5.3493404,0c0-4.6659985,0-9.2914429,0-13.9168873
		C128.8119659,0,245.4519653,0,362.09198,0z"/>
	<path display="inline" fill="#353535" d="M12.2221403,52.6008034c1.7785368,0,3.4481001,0,5.2871351,0
		c0,23.8062019,0,47.5724449,0,71.3927002c113.1083374,0,226.0470276,0,339.1157837,0c0-2.7997742,0-5.5409927,0-8.3777008
		c1.8590088,0,3.5905762,0,5.3952332,0c0,4.5591431,0,9.0975876,0,13.7241364c-116.583786,0-233.1540527,0-349.7981567,0
		C12.2221403,103.7798691,12.2221403,78.242218,12.2221403,52.6008034z"/>
	<path display="inline" fill="#353535" d="M195.3104553,89.4910507c0-16.3918076,0-32.6971092,0-49.0692101
		c0.2246399-0.041626,0.4472656-0.118988,0.6698914-0.1189613c13.8348846,0.0015907,27.6703186-0.0515862,41.5041351,0.0742912
		c2.4326477,0.0221367,4.9230194,0.5788994,7.272049,1.2754364c3.390686,1.0054207,5.5279236,3.4963646,5.9268341,6.9912605
		c0.4103851,3.595871,0.6194305,7.2611847,0.4205017,10.8687592c-0.2693024,4.8838806-2.8141174,7.2670898-7.6923218,7.9378433
		c-0.259079,0.0356369-0.5171204,0.0790176-1.1139374,0.1708374c1.2527924,0.4056015,2.1914978,0.6640015,3.0963898,1.0106812
		c3.2535248,1.2464981,5.0267181,3.6490402,5.1022797,7.1109695c0.09935,4.5501633,0.0244293,9.1041336,0.0244293,13.7504272
		c-2.0217133,0-3.9976654,0-6.1233826,0c-0.0220337-0.400856-0.0617371-0.8185959-0.0653381-1.2366409
		c-0.0296783-3.4373932,0.0206451-6.8772888-0.0946198-10.3116837c-0.179245-5.3411789-2.0579987-7.2705841-7.3738251-7.7815399
		c-0.437027-0.0420074-0.8782043-0.0571136-1.3174744-0.0572281c-10.9161072-0.0028458-21.8322144-0.0021515-32.7483215-0.000412
		c-0.1971741,0.0000305-0.3943329,0.0203629-0.7234955,0.0384979c0,6.4275665,0,12.8392944,0,19.3466721
		C199.7731171,89.4910507,197.6026459,89.4910507,195.3104553,89.4910507z M202.0664673,64.5754395
		c0.3328094,0.0252228,0.5680695,0.0585938,0.8033295,0.0586548c10.7137299,0.0026627,21.427887,0.0502701,32.1408234-0.0418396
		c1.9187622-0.0164871,3.8888245-0.4263229,5.7345734-0.9862785c2.388443-0.7246056,3.5809326-2.6307144,3.6996613-5.0759735
		c0.1103821-2.2728806,0.0955963-4.5586128-0.0001068-6.8329659c-0.1137085-2.702549-1.4289856-4.4634743-4.0862427-5.0904083
		c-2.1159668-0.4992256-4.3293457-0.7901878-6.5024261-0.8076439c-10.1534271-0.0815697-20.3078766-0.036232-30.4619598-0.0362587
		c-0.4251709,0-0.8503265,0-1.327652,0C202.0664673,52.0916824,202.0664673,58.2727127,202.0664673,64.5754395z"/>
	<path display="inline" fill="#353535" d="M112.7069702,89.585762c-2.4770279,0-4.7143097,0.0416031-6.9471207-0.0397568
		c-0.3854065-0.0140457-0.8763733-0.4747391-1.107132-0.8568344c-1.733963-2.8711548-3.4324951-5.764267-5.0978699-8.6758194
		c-0.3391418-0.5929108-0.6984787-0.8311768-1.3998718-0.8299026c-12.5577393,0.0228577-25.1155548,0.0228958-37.6732979-0.0001678
		c-0.696949-0.0012817-1.0697861,0.2385254-1.4044914,0.8184433c-1.6966171,2.9396057-3.4473457,5.848053-5.1352539,8.7925491
		c-0.3467407,0.604866-0.7425194,0.8203964-1.4263153,0.8077545c-2.1381035-0.0395355-4.277401-0.0145264-6.6348228-0.0145264
		c1.0067444-1.7129593,1.8845749-3.220459,2.7754402-4.7202072c8.628418-14.5257111,17.2661514-29.0458984,25.8687592-43.5868759
		c0.4491196-0.7591515,0.9122238-1.0337372,1.7804794-1.0057144c2.0774689,0.0670586,4.1589737,0.0449448,6.2379608,0.0083084
		c0.6710358-0.0118294,1.0766373,0.1767616,1.4362411,0.7840309c9.4221725,15.9109383,18.8663406,31.8088417,28.3051453,47.7099266
		C112.4013977,88.9733505,112.4971771,89.1820755,112.7069702,89.585762z M79.3127289,45.7605476
		c-5.5286407,9.3560333-10.9596329,18.546833-16.4405022,27.8220253c11.0346565,0,21.893383,0,32.8893623,0
		C90.249321,64.2589874,84.8154984,55.0680733,79.3127289,45.7605476z"/>
	<path display="inline" fill="#353535" d="M261.4650879,89.5875549c2.8596191-4.8231964,5.5821533-9.4203873,8.3096313-14.0146561
		c6.7668457-11.3983078,13.5426025-22.7913551,20.2893677-34.2015457c0.4517212-0.7639275,0.9047241-1.1453667,1.8591614-1.1027679
		c2.0353088,0.0908279,4.0785217,0.0645409,6.1163635,0.0089874c0.7731628-0.0210724,1.1994019,0.2168274,1.6006775,0.895771
		c7.45755,12.6169319,14.9440002,25.2167931,22.4256592,37.8194618c2.0539551,3.4598541,4.1122437,6.9171371,6.2936707,10.5860214
		c-2.5362244,0-4.8695068,0.0312805-7.1997986-0.0379181c-0.3058777-0.0090714-0.6771545-0.4844284-0.8814392-0.8256683
		c-1.7229004-2.8778305-3.4321594-5.764267-5.1002197-8.6740875c-0.3639526-0.6349106-0.774292-0.8593979-1.5083313-0.858017
		c-12.5159912,0.0235367-25.0321045,0.0242157-37.5480652-0.001297c-0.7520752-0.0015411-1.1253967,0.2702026-1.4826355,0.8930511
		c-1.6488037,2.8746185-3.3674011,5.709198-5.0175476,8.5830688c-0.3777466,0.6577682-0.7752075,0.975914-1.583374,0.9513016
		C265.9241333,89.5448837,263.8067932,89.5875549,261.4650879,89.5875549z M311.3879089,73.6334457
		c-5.5160828-9.3314667-10.9440918-18.5139656-16.4761047-27.8723907
		c-5.5375061,9.3701591-10.9659119,18.5556717-16.4718323,27.8723907
		C289.4852295,73.6334457,300.3093567,73.6334457,311.3879089,73.6334457z"/>
	<path display="inline" fill="#353535" d="M181.2268372,40.5492363
		c-11.6566315,7.7722626-23.3132629,15.544529-35.138855,23.4294548
		c12.8363037,8.4864655,25.5696564,16.9048691,38.5196991,25.4665375c-0.5152283,0.0677032-0.7989807,0.136795-1.082901,0.1374359
		c-3.3190002,0.0075607-6.638504,0.0338211-9.9565735-0.0223083c-0.5874329-0.0099411-1.2471008-0.2588196-1.7415619-0.5926514
		c-10.6943817-7.220192-21.3649445-14.475647-32.063736-21.6892242c-0.5513611-0.3717499-1.3081207-0.5845566-1.978302-0.6075363
		c-2.1912537-0.0751648-4.3866882-0.0282059-6.6959076-0.0282059c0,7.6541138,0,15.1958008,0,22.8408737
		c-2.2426605,0-4.3711166,0-6.5825806,0c0-16.3426819,0-32.6772919,0-49.0997238c2.1263809,0,4.2579498,0,6.5120544,0
		c0,6.8878708,0,13.7459488,0,20.7924576c1.6958313,0,3.2887573-0.1270218,4.8534546,0.0291176
		c2.4827881,0.247757,4.4779968-0.5519257,6.5187073-1.9645004c8.9671783-6.2069817,18.0321655-12.2728844,27.0843048-18.3562927
		c0.5186157-0.3485336,1.2349396-0.552063,1.8636322-0.5626526c3.269104-0.0550804,6.5396576-0.0256577,9.8096924-0.0256577
		C181.1742554,40.3806534,181.2005463,40.4649429,181.2268372,40.5492363z"/>
	<path display="inline" fill="#353535" d="M374.3141479,96.1144562c0.003418,8.2195129-6.722229,15.0114517-14.9408264,14.9760208
		c-7.9838562-0.0344162-14.9370422-6.0869904-14.9122009-14.911499c0.0256958-9.139534,7.161438-14.9568176,14.9746399-14.9881897
		C367.5301208,81.1582947,374.3108215,87.998848,374.3141479,96.1144562z M355.7280579,84.2520599
		c-2.9558411,0.0032959-5.1073608,2.2037354-5.056366,5.1712799c0.0465393,2.7050781,2.2879639,4.8676147,5.0483093,4.8705978
		c2.8050537,0.0030441,5.039093-2.1771088,5.0936584-4.9708099
		C360.8680115,86.5411072,358.5692139,84.2489014,355.7280579,84.2520599z"/>
	<path display="inline" fill="#353535" d="M29.7359734,33.402626c0.002964,8.3416214-6.5418091,14.9457626-14.8430777,14.977726
		c-8.333149,0.0320816-14.8978224-6.5254631-14.8928928-14.8767204c0.0050177-8.5004349,6.5035472-14.9664497,15.0363188-14.9610844
		C23.1235924,18.5476322,29.7330742,25.2292461,29.7359734,33.402626z M11.2180405,21.6082993
		c-2.9976501,0.0034504-5.0312538,2.0480843-5.0204201,5.0476494c0.0098791,2.735302,2.3305292,5.0164223,5.0809126,4.9943619
		c2.7532663-0.0220814,4.9476995-2.288126,4.9500227-5.1115513C16.2309341,23.6507416,14.1518965,21.6049232,11.2180405,21.6082993z
		"/>
</g>
<g>
	<path fill="#F2EDE3" d="M12.2330866,0.075427c0.5198584-0.0039783,1.0397167-0.0114405,1.5595741-0.0114428
		c115.5829315-0.0005078,231.1658783-0.0005186,346.7488098,0.0003387c0.5197449,0.0000038,1.0394897,0.0126013,1.5592041,0.0193173
		c0.011261,0.399211,0.0322876,0.7984214,0.0323181,1.197633c0.0015564,24.6369095-0.0052795,49.2738266,0.0241394,73.9106979
		c0.0012817,1.0529861-0.1983337,1.4994659-1.3421021,1.3769608c-1.0280762-0.1100998-2.079895-0.0685272-3.1162415-0.0082169
		c-0.7657471,0.044548-1.0760193-0.1593781-1.0239563-0.9830017c0.0705566-1.1153946,0.0175171-2.2386169,0.0175171-3.3584747
		c0-21.8772507-0.0100708-43.754528,0.0297546-65.6317139c0.0019836-1.0979705-0.3110046-1.2667813-1.3146667-1.2665696
		C243.2615051,5.344625,131.1155701,5.3451104,18.9696541,5.3166151c-1.13204-0.0002871-1.5032749,0.221662-1.4390278,1.4105778
		c0.1120625,2.0736818,0.0038338,4.1583519,0.0465603,6.2372131c0.0141163,0.6867361-0.2009449,0.8858461-0.8725128,0.8601456
		c-1.2779655-0.0489073-2.5596418-0.034977-3.8387241-0.0038471c-0.5145082,0.0125208-0.6884155-0.1397514-0.6845379-0.6700974
		C12.213274,8.7923212,12.2192545,4.433845,12.2330866,0.075427z"/>
	<path fill="#F2EDE3" d="M187.0390015,129.2507019c-57.7928162-0.0000153-115.5856476-0.0035706-173.3784485,0.025589
		c-1.1491289,0.0005798-1.505868-0.1933899-1.5035248-1.450676c0.0460882-24.716774,0.0401144-49.43367,0.013052-74.1504974
		c-0.0010777-0.9844704,0.129427-1.4380569,1.258502-1.3182068c1.1469374,0.1217461,2.3176003,0.0514488,3.4763737,0.0161133
		c0.532589-0.0162354,0.7187214,0.1701813,0.6620865,0.6837692c-0.0305004,0.2765923-0.0052071,0.5593262-0.0052071,0.8392906
		c0.0000095,22.8770981,0.0077248,45.7541962-0.0241222,68.6312561c-0.0014992,1.0768356,0.241703,1.3794556,1.3584881,1.3791656
		c112.145752-0.0281372,224.2915192-0.0277863,336.4373169-0.0038681c1.0545959,0.0002213,1.4432983-0.2014618,1.3881836-1.3421631
		c-0.1021729-2.1147842-0.0036621-4.238533-0.0438232-6.3574982c-0.013031-0.6897964,0.2081299-0.9003601,0.8860779-0.8752823
		c1.2781067,0.0472717,2.5599976,0.0405731,3.8386536,0.0019684c0.5840149-0.0176392,0.7457886,0.179512,0.7428894,0.7511978
		c-0.0209351,4.1593704-0.0257263,8.3190079,0.0041809,12.4782562c0.0046082,0.6339569-0.2440491,0.7473297-0.7733154,0.696991
		c-0.3170776-0.0301208-0.6394043-0.0054016-0.9593506-0.0054016
		C302.6243286,129.2507019,244.831665,129.2507172,187.0390015,129.2507019z"/>
	<path fill="#F2EDE3" d="M181.3335876,40.3302422c-11.7073669,7.8057632-23.4147186,15.6115265-35.2054749,23.4729004
		c12.8322906,8.48283,25.6013794,16.9238777,38.4328613,25.4061775c-0.383316,0.3130646-0.7489319,0.1938477-1.0754089,0.194931
		c-3.2397461,0.0106964-6.4797516-0.0137558-9.7191315,0.02211c-0.7209015,0.0079803-1.294342-0.1903152-1.87883-0.5875473
		c-10.6950226-7.2686768-21.4026947-14.5188065-32.0941315-21.7927628
		c-0.5930481-0.4034729-1.1660004-0.6062927-1.8820038-0.5923157c-1.8391724,0.0358887-3.6820984,0.0703049-5.5183716-0.010994
		c-1.0175934-0.0450516-1.3514862,0.1792984-1.3416443,1.2892685c0.0606384,6.8389816,0.0124359,13.6788788,0.052063,20.5181732
		c0.0053253,0.9212418-0.200943,1.2413406-1.1651154,1.1836853c-1.4746399-0.0881805-2.9609833-0.0754623-4.4373093-0.0029068
		c-0.8445435,0.0415115-1.057312-0.2047958-1.0540314-1.0497665c0.0332947-8.5992661,0.0203629-17.1987228,0.0203476-25.7981224
		c0-7.1194954,0.0155411-14.2390709-0.020256-21.358387c-0.0043411-0.8625565,0.1492081-1.1906204,1.0917282-1.1290703
		c1.4337921,0.0936394,2.8821716,0.0893745,4.3167419,0.0020027c0.9727783-0.0592422,1.2634125,0.1815033,1.2539368,1.2122459
		c-0.0561981,6.1190605,0.0040131,12.239212-0.0568542,18.3581772c-0.0111847,1.1234093,0.3067322,1.4093475,1.3855896,1.3567619
		c1.8355103-0.0894585,3.6805573-0.0761986,5.5176392-0.0047073c1.0515747,0.0409241,1.898056-0.2457314,2.7655945-0.8357697
		c9.6371155-6.5543404,19.2968903-13.0753021,28.9511566-19.6044006c0.3241882-0.2192421,0.6095276-0.4713516,1.0618286-0.4690666
		c3.5116577,0.0177498,7.0234528,0.0097961,10.535202,0.0097961
		C181.2910156,40.1905174,181.3122864,40.2603798,181.3335876,40.3302422z"/>
	<path fill="#F2EDE3" d="M251.1101074,59.7499046c0.3846436-3.8485107,0.3948975-7.7497559-0.3880615-11.579834
		c-0.6972656-3.4104004-2.7808838-5.6610107-6.0567627-6.8023682c-2.3580322-0.8216553-4.814209-1.197998-7.2900391-1.2062988
		c-13.713623-0.0462646-27.4277344-0.024292-41.1414795-0.0633545c-0.862915-0.0025635-0.9376221,0.3210449-0.9354248,1.0285645
		c0.0217285,6.717041,0.0129395,13.4343262,0.0129395,20.1513672c0,9.0361366,0.012207,18.0722694-0.0201416,27.1084023
		c-0.0030518,0.8413086,0.208374,1.0837402,1.050415,1.0449219c1.5559082-0.0720215,3.119873-0.0700684,4.6760254-0.0004883
		c0.8270264,0.0368652,1.0639648-0.1789551,1.0578613-1.0327148c-0.0404053-5.7972412,0.0020752-11.5950928-0.0449219-17.3922119
		c-0.0074463-0.914917,0.2414551-1.1031494,1.1223145-1.1004639c10.4753418,0.0332031,20.9509277,0.020752,31.4265137,0.0230713
		c0.6391602,0.0001221,1.2806396-0.0037842,1.9169922,0.0452881c0.7949219,0.0612793,1.5981445,0.1160889,2.3762207,0.2773438
		c3.5263672,0.7314453,5.3271484,2.9814453,5.4060059,6.8498535c0.0766602,3.7556152,0.0930176,7.5131836,0.0732422,11.2695312
		c-0.0045166,0.8457031,0.2349854,1.0952148,1.0698242,1.0583496c1.4765625-0.0651855,2.958374-0.039917,4.4370117-0.0073242
		c0.559082,0.0124512,0.7597656-0.1390381,0.7548828-0.7299805c-0.0366211-4.4375,0.0476074-8.8778076-0.0860596-13.3117676
		c-0.0943604-3.1293945-1.6761475-5.4129639-4.5845947-6.7229004c-1.0820312-0.4873047-2.2332764-0.7526855-3.3531494-1.300293
		c0.274292-0.0268555,0.5489502-0.0489502,0.8223877-0.081543
		C248.0979004,66.7164612,250.6437988,64.4159241,251.1101074,59.7499046z M239.7524414,63.8646507
		c-1.6647949,0.4670448-3.3791504,0.5881386-5.0985107,0.5920448c-4.9180908,0.0114746-9.8361816,0.0041504-14.7542725,0.0041504
		c-5.5979004,0-11.1958008-0.0166016-16.793457,0.0185547c-0.7988281,0.0050049-1.0806885-0.1374512-1.0739746-1.015873
		c0.0437012-5.6374512,0.0383301-11.2756348,0.0039062-16.913208c-0.0047607-0.7825928,0.2006836-0.9842529,0.9831543-0.9821777
		c10.3959961,0.0270996,20.7919922,0.0054932,31.1878662,0.0288086c2.1141357,0.0047607,4.22229,0.1671143,6.2686768,0.7952881
		c2.2897949,0.7028809,3.7258301,2.1955566,3.9521484,4.5869141c0.2484131,2.6262207,0.2724609,5.2841797,0.0028076,7.9040527
		C244.1483154,61.6282005,242.3082275,63.1478539,239.7524414,63.8646507z"/>
	<path fill="#F2EDE3" d="M108.5000076,82.1671448C100.339119,68.41922,92.1755447,54.6730003,84.0329666,40.9142113
		c-0.348877-0.5893555-0.7125244-0.8269043-1.40625-0.8115234c-2.1586914,0.0477295-4.3200684,0.0585938-6.4777832-0.0050049
		c-0.748291-0.0220947-1.1295166,0.237915-1.4936523,0.8536377c-6.1899414,10.4682617-12.4001465,20.9244385-18.607666,31.382328
		c-3.3347168,5.6179199-6.6726074,11.2340088-10.1433105,17.0771484c2.37146,0,4.5246582-0.0290527,6.6763916,0.0166016
		c0.6937256,0.0147705,1.0635986-0.2141113,1.4078369-0.8171387c1.6601562-2.9077148,3.3897705-5.7755127,5.0611572-8.6767578
		c0.369751-0.6418457,0.7561035-0.9372559,1.5682373-0.9349365c12.5175781,0.0352783,25.0354004,0.0296631,37.5529785,0.0108643
		c0.6726074-0.0009766,1.0603027,0.1722412,1.4108887,0.7889404c1.6738281,2.9453125,3.4051514,5.8580322,5.1357422,8.7706299
		c0.2061768,0.3469238,0.2974854,0.8476562,0.8879395,0.8447266c2.3395996-0.0115967,4.6791992-0.0047607,7.2043457-0.0047607
		C111.3026199,86.8768616,109.8988113,84.523468,108.5000076,82.1671448z M62.8852615,73.4588928
		c5.486084-9.2858887,10.9250488-18.4921913,16.4702148-27.8781776c5.526123,9.3493652,10.970459,18.5600624,16.4782715,27.8781776
		C84.8037186,73.4588928,73.9442215,73.4588928,62.8852615,73.4588928z"/>
	<path fill="#F2EDE3" d="M322.072998,78.7411194c-7.4707031-12.5820312-14.9486084-25.1599159-22.3952637-37.7561073
		c-0.4013672-0.6789551-0.8227539-0.9047852-1.590332-0.8840332c-2.0778809,0.0561523-4.1600342,0.067627-6.2369385-0.0043945
		c-0.8433838-0.0292969-1.2645264,0.2867432-1.6727295,0.9765625
		c-7.4672852,12.6245117-14.9581299,25.2349892-22.4443359,37.8483925
		c-2.046875,3.4487305-4.0949707,6.8969727-6.2272949,10.4882812c2.4750977,0,4.7822266-0.0166016,7.0888672,0.0117188
		c0.5793457,0.0070801,0.7214355-0.3891602,0.9390869-0.7580566c1.7414551-2.9527588,3.5079346-5.8913574,5.2042236-8.8696289
		c0.3540039-0.62146,0.7415771-0.7844238,1.4082031-0.7834473c12.5163574,0.0174561,25.032959,0.0234375,37.5494385-0.0115967
		c0.8139648-0.0023193,1.1988525,0.2982178,1.5683594,0.9403076c1.6898193,2.9365234,3.4232178,5.8480225,5.1258545,8.7773438
		c0.2583008,0.4443359,0.5181885,0.7193604,1.1044922,0.7094727c2.2363281-0.0378418,4.4736328-0.0153809,6.9086914-0.0153809
		C326.2143555,85.7210999,324.1447754,82.2303772,322.072998,78.7411194z M278.4946289,73.4339905
		c5.4912109-9.2911377,10.9294434-18.4928017,16.4599609-27.8502235
		c5.5249023,9.3465576,10.9606934,18.5421181,16.4630127,27.8502235
		C300.407959,73.4339905,289.5368652,73.4339905,278.4946289,73.4339905z"/>
</g>
<g id="XMLID_2_">
	<path fill="#F2EDE3" d="M344.4631653,96.1800003c0.019989-9.1399994,7.1600037-14.9599991,14.9700012-14.9899979
		C367.5331421,81.1600037,374.3131714,88,374.3131714,96.1100006c0,8.2200012-6.7200012,15.0199966-14.9400024,14.9799957
		C351.393158,111.0599976,344.4331665,105,344.4631653,96.1800003z M355.7231445,84.25
		c-2.9499817,0.0100021-5.0999756,2.2099991-5.0499878,5.1699982c0.0499878,2.7099991,2.2900085,4.8700027,5.0499878,4.8700027
		c2.8000183,0.0100021,5.0400085-2.1699982,5.0900269-4.9700012C360.8631592,86.5400009,358.5731506,84.25,355.7231445,84.25z"/>
</g>
<g id="XMLID_1_">
	<path fill="#F2EDE3" d="M0.003157,33.5c0-8.5,6.5-14.9599991,15.0300007-14.9599991
		c8.0900002,0.0099983,14.6999989,6.6899986,14.6999989,14.8600006c0.0100002,8.3400002-6.539999,14.9499969-14.8399992,14.9799995
		C6.5631571,48.4099998-0.006843,41.8499985,0.003157,33.5z M11.2131567,21.6100006
		c-2.9899998,0-5.0299997,2.0499992-5.0199995,5.0499992c0.0099998,2.7299995,2.3299999,5.0100002,5.0900002,4.9899998
		c2.75-0.0200005,4.9400005-2.289999,4.9499989-5.1099987C16.2331562,23.6499996,14.1531572,21.6000004,11.2131567,21.6100006z"/>
</g>
</svg>
