<?xml version="1.0" encoding="utf-8"?>
<!-- Generator: Adobe Illustrator 17.0.0, SVG Export Plug-In . SVG Version: 6.00 Build 0)  -->
<svg version="1.2" baseProfile="tiny" id="Ebene_1" xmlns="http://www.w3.org/2000/svg" xmlns:xlink="http://www.w3.org/1999/xlink"
	 x="0px" y="0px" width="732.5893555px" height="219.0771027px" viewBox="0 0 732.5893555 219.0771027" xml:space="preserve">
<g>
	<path fill="#F2EDE3" d="M139.1411896,123.134697c0-13.3827972,8.8252106-20.0760956,26.4751129-20.0760956
		c6.5047913,0,12.1815948,0.4160004,17.0301971,1.2440948v-6.152298c0-7.0849991-5.8637085-10.6289978-17.5884094-10.6289978
		c-6.7124023,0-13.5912933,1.0381012-20.634201,3.1093979v-9.3241959c7.0429077-2.0703049,13.9217987-3.1063995,20.634201-3.1063995
		c19.3912048,0,29.0865021,6.9598999,29.0865021,20.8827972v44.3749924h-5.8423004l-4.5990906-4.5986938
		c-5.6773071,3.0664062-12.3482056,4.5986938-20.0131989,4.5986938
		C147.323288,143.4579926,139.1411896,136.684494,139.1411896,123.134697z M165.6163025,112.3827972
		c-9.9849091,0-14.9781036,3.5223999-14.9781036,10.5653992c0,7.4580078,4.3510895,11.1865082,13.0518036,11.1865082
		c7.9550934,0,14.2733917-1.6972046,18.9564972-5.0947113v-15.4130936
		C178.0883942,112.7977982,172.4116974,112.3827972,165.6163025,112.3827972z"/>
	<path fill="#F2EDE3" d="M205.2802887,80.8720016c8.6592102-1.7802048,17.6099091-2.6717987,26.8496094-2.6717987
		c20.9234009,0,31.3863068,10.3387985,31.3863068,31.0135956c0,22.8290939-10.5254059,34.244194-31.5728149,34.244194
		c-5.2211914,0-10.2763824-1.0341949-15.1649933-3.1064911v26.7236938h-11.4981079V80.8720016z M216.7783966,130.1591034
		c4.5156097,2.2353973,9.5493011,3.3544922,15.1024933,3.3544922c13.5487976,0,20.3237-8.1405945,20.3237-24.4247971
		c0-14.2108994-6.733902-21.3173981-20.1996918-21.3173981c-5.8012085,0-10.8764038,0.4952011-15.2265015,1.4922028V130.1591034z"/>
	<path fill="#F2EDE3" d="M273.9614868,80.8720016c8.6586914-1.7802048,17.609314-2.6717987,26.8496094-2.6717987
		c20.9233093,0,31.3856812,10.3387985,31.3856812,31.0135956c0,22.8290939-10.5253906,34.244194-31.5721741,34.244194
		c-5.2217102,0-10.2763977-1.0341949-15.1651001-3.1064911v26.7236938h-11.4980164V80.8720016z M285.4595032,130.1591034
		c4.5155945,2.2353973,9.5492859,3.3544922,15.1020813,3.3544922c13.5487976,0,20.3237-8.1405945,20.3237-24.4247971
		c0-14.2108994-6.7333984-21.3173981-20.199707-21.3173981c-5.8007812,0-10.8759766,0.4952011-15.2260742,1.4922028V130.1591034z"/>
	<path fill="#F2EDE3" d="M345.0102844,143.4579926V78.2002029h12.7412109l1.9267883,8.2040939
		c7.4980164-5.4706955,14.9355164-8.2040939,22.3095093-8.2040939c8.2060852,0,14.0245056,2.9833984,17.4667969,8.9501953
		c8.3243103-5.9667969,16.1347961-8.9501953,23.4306946-8.9501953c13.7549133,0,20.6308899,8.2655945,20.6308899,24.7967987
		v40.4609909H427.050293v-41.0810928c0-7.2509995-3.0693054-10.875-9.1992188-10.875
		c-4.891571,0-10.0057983,2.8163986-15.3505859,8.4522018v43.503891h-16.4707031v-40.8945923
		c0-7.3740005-3.0272827-11.0615005-9.0731812-11.0615005c-5.2207031,0-10.379425,2.8163986-15.4771118,8.4522018v43.503891
		H345.0102844z"/>
	<path fill="#F2EDE3" d="M452.6997986,110.8291016c0-22.1651001,10.9794006-33.25,32.9413757-33.25
		c21.9570007,0,32.9414062,11.0848999,32.9414062,33.25c0,22.125-10.9844055,33.1884003-32.9414062,33.1884003
		C463.7641907,144.0175018,452.7797852,132.9541016,452.6997986,110.8291016z M485.6411743,131.027298
		c10.9785156,0,16.4707031-6.8134995,16.4707031-20.4462967c0-13.2998047-5.4921875-19.9502029-16.4707031-19.9502029
		c-10.9833984,0-16.4706726,6.6503983-16.4706726,19.9502029
		C469.1705017,124.2137985,474.6577759,131.027298,485.6411743,131.027298z"/>
	<path fill="#F2EDE3" d="M527.9506836,67.6337967h12.1826172l2.4882812,10.5664062h15.1630859v13.0506973h-13.3632812v30.0186005
		c0,6.0917969,2.6298828,9.1367035,7.8945923,9.1367035h5.468689v13.0517883h-13.4248047
		c-10.9364624,0-16.4091797-5.8622894-16.4091797-17.5888901V67.6337967z"/>
	<path fill="#F2EDE3" d="M586.5562134,78.2002029v65.2577896h-16.4707031V78.2002029H586.5562134z"/>
	<path fill="#F2EDE3" d="M596.1176758,110.8291016c0-22.1651001,10.9833984-33.25,32.9414062-33.25
		c21.9619141,0,32.9404907,11.0848999,32.9404907,33.25c0,22.125-10.9785767,33.1884003-32.9404907,33.1884003
		C607.1821899,144.0175018,596.2026978,132.9541016,596.1176758,110.8291016z M629.059082,131.027298
		c10.9785156,0,16.4707031-6.8134995,16.4707031-20.4462967c0-13.2998047-5.4921875-19.9502029-16.4707031-19.9502029
		s-16.4707031,6.6503983-16.4707031,19.9502029C612.5883789,124.2137985,618.0805664,131.027298,629.059082,131.027298z"/>
	<path fill="#F2EDE3" d="M671.3686523,143.4579926V78.2002029h12.7451172l2.0488281,8.3290939
		c7.9140625-5.5527954,15.8710938-8.3290939,23.8652954-8.3290939c15.039978,0,22.5614624,8.1024933,22.5614624,24.3016968
		v40.9560928h-16.4696655v-41.1425934c0-7.2108994-3.5839844-10.8134995-10.7520142-10.8134995
		c-5.7616577,0-11.602478,2.7528992-17.5292969,8.2637024v43.6923904H671.3686523z"/>
</g>
<g>
	<path fill="#F2EDE3" d="M69.2700958,195.1083984L45.3013,219.0771027C15.1000996,189.0332031,0,152.527298,0,109.5371017
		C0,66.7157974,15.1000996,30.2001991,45.3013,0l23.9687958,23.9696999
		c-23.6503944,23.6503983-35.4741974,52.1738014-35.4741974,85.5673981
		C33.7958984,143.094696,45.6197014,171.618103,69.2700958,195.1083984z"/>
</g>
<g>
	<path fill="#F2EDE3" d="M103.1201935,161.5673065L88.739296,175.9510956
		c-18.1211014-18.0262909-27.1811943-39.9326019-27.1811943-65.7245941c0-25.6942978,9.0600929-47.6025009,27.1811943-65.7236023
		l14.3808975,14.3809013C88.9301987,73.0761032,81.835495,90.1884003,81.835495,110.2265015
		C81.835495,130.3592987,88.9301987,147.4745941,103.1201935,161.5673065z"/>
</g>
</svg>
