<?xml version="1.0" encoding="utf-8"?>
<!-- Generator: Adobe Illustrator 17.0.0, SVG Export Plug-In . SVG Version: 6.00 Build 0)  -->
<svg version="1.2" baseProfile="tiny" id="Layer_1" xmlns="http://www.w3.org/2000/svg" xmlns:xlink="http://www.w3.org/1999/xlink"
	 x="0px" y="0px" width="215.0005341px" height="36.9235573px" viewBox="31.9997826 -4.9998531 215.0005341 36.9235573"
	 xml:space="preserve">
<circle display="none" fill="#FFFFFF" cx="49.9904785" cy="12.5908203" r="16.5908279"/>
<g>
	<path fill="#F2EDE3" d="M124.6672592,13.2348557c0-4.0753908,0-8.1507816,0-12.2261696
		c0-0.1522788-0.0032501-0.3049636,0.0052719-0.4568368c0.0255814-0.4373466,0.2302475-0.6578462,0.6659698-0.6679987
		c0.6468811-0.0154317,1.2949829-0.0012176,1.9422684-0.0077143c0.3808975-0.0040616,0.5660706,0.2257788,0.6996689,0.5392686
		c0.6269836,1.4708123,1.2584381,2.9395952,1.8858185,4.4099979c1.513855,3.5478973,3.0256958,7.0966053,4.5427856,10.6432838
		c0.0491333,0.1145134,0.0625458,0.3264847,0.2444611,0.2769442c0.1380615-0.0373583,0.0787811-0.2225304,0.0787811-0.3423233
		c0.0028381-4.7738428,0.0024414-9.5472803,0.0024414-14.3211222c0.0003967-1.0907252,0.114502-1.2068615,1.1889801-1.2064556
		c0.6477051,0,1.2949829-0.0048733,1.9426727,0.002841c0.5266876,0.0069026,0.730957,0.2042561,0.7752075,0.7309402
		c0.0117798,0.1388764,0.0077209,0.2793794,0.0077209,0.4186649c0.000412,8.1381931,0.000412,16.2763844,0.000412,24.4145756
		c0,0.114109,0.0024261,0.2286224-0.0036621,0.3427296c-0.0320892,0.5957165-0.2355347,0.7983494-0.8227081,0.8048458
		c-0.5457764,0.0060902-1.0923462-0.0142136-1.6377258,0.0064964c-0.4763184,0.0182743-0.750824-0.2006016-0.9303131-0.6253586
		c-0.8840332-2.0921097-1.7786102-4.1797523-2.6707611-6.2682076c-1.2312317-2.8823357-2.4624634-5.7642651-3.6993713-8.6441641
		c-0.0540009-0.1250715-0.0560303-0.3658762-0.2464905-0.3220186c-0.1729889,0.0397949-0.1059875,0.2611065-0.1063843,0.4044523
		c-0.0028534,4.7612553-0.0024414,9.5221033-0.0024414,14.2829523c-0.000412,0.1652737,0.0040588,0.3305473-0.0056915,0.4950085
		c-0.0259857,0.4353142-0.233078,0.6578445-0.6692123,0.6647472c-0.837326,0.013401-1.6754684,0.013401-2.5132065-0.0004044
		c-0.4365311-0.0077171-0.6444473-0.2298412-0.6679993-0.6655617c-0.0121841-0.2282143-0.0064926-0.457243-0.0064926-0.6854591
		C124.6672592,21.2333584,124.6672592,17.2343102,124.6672592,13.2348557"/>
	<path fill="#F2EDE3" d="M166.4212952,6.0883436c-0.3553162,0-0.7114563,0.0109644-1.0659637-0.0024352
		c-0.6066895-0.0227404-0.8145905-0.2306523-0.8625183-0.8324594c-0.0129852-0.1640549-0.0081177-0.3317623-0.0393829-0.4921646
		c-0.1802979-0.9246378-0.7825012-1.444416-1.6803436-1.4618771c-0.945343-0.0186787-1.6011505,0.5161226-1.8151703,1.4594419
		c-0.2168427,0.9595599,0.0605011,1.8383098,0.4450684,2.6890421c0.5806885,1.2852335,1.4724274,2.3653984,2.3568726,3.4467831
		c1.204422,1.4732475,2.4648895,2.903451,3.4662781,4.5318213c0.9916382,1.6125307,1.7168884,3.3245535,1.7042999,5.2509832
		c-0.0219269,3.375721-2.7747345,6.0708542-6.1472015,6.0684166c-3.3736877-0.0024357-6.1281128-2.7548256-6.1345978-6.1301403
		c-0.0016327-0.8251495,0.1762238-1.0050411,1.0046234-1.0070724c0.6728668-0.0016232,1.3457489-0.0040607,2.0182037,0.0016251
		c0.5640564,0.0048733,0.769516,0.2127857,0.8247528,0.769516c0.049942,0.50313,0.0714722,1.0091019,0.2818146,1.4870548
		c0.3813019,0.8665695,1.0623016,1.2750816,1.9759674,1.2941685c0.8462677,0.017868,1.5378113-0.3155231,1.9629822-1.0761051
		c0.542511-0.9705257,0.5315552-1.9970875,0.1940918-3.0187778c-0.4625092-1.4001541-1.3656158-2.5387936-2.2740173-3.6672821
		c-1.2966156-1.610096-2.7024536-3.1357279-3.8159027-4.8879509c-0.8373413-1.3173141-1.4468689-2.7130013-1.6901093-4.2808652
		c-0.5303345-3.4187648,2.0218658-6.4793668,5.4820404-6.5037336c2.6728058-0.0186786,4.9350739,1.816792,5.466217,4.444109
		c0.0722809,0.3593793,0.1421204,0.725255,0.1551208,1.0903192c0.0211182,0.6026192-0.1859894,0.8040314-0.7849579,0.823523
		c-0.3423157,0.0113702-0.6854401,0.0024366-1.0281677,0.0024366V6.0883436z"/>
	<path fill="#F2EDE3" d="M213.2601471,14.9056606c0.0003967,3.5158157,0.0008087,7.0312271-0.0012207,10.5470428
		c0,0.1896381-0.0036621,0.381712-0.032074,0.5685081c-0.0548248,0.3634396-0.2724915,0.5664768-0.6464844,0.5681019
		c-0.8503113,0.004467-1.7006531,0.004467-2.5509796,0c-0.3731689-0.0020313-0.5940857-0.1985722-0.6415863-0.5685081
		c-0.0272217-0.2131901-0.0406189-0.429224-0.0406189-0.6440392c-0.0020294-7.0312252-0.0016174-14.0624514-0.0016174-21.0936775
		c-0.000412-0.7516475-0.017868-0.7695174-0.7634277-0.7703292c-0.7362213-0.0008118-1.4724426,0.0036557-2.208252-0.0020292
		c-0.5831299-0.0044675-0.7975464-0.1798925-0.8210907-0.7593656c-0.0292206-0.7220051-0.0272064-1.4472573,0.0016327-2.1692624
		c0.0202942-0.5051614,0.2493286-0.6988592,0.7601776-0.6996709c3.3253632-0.0040616,6.6507263-0.0040616,9.9756775,0
		c0.5242615,0.0008117,0.7500305,0.2058796,0.7670898,0.7345929c0.0231476,0.722411,0.0243683,1.4472604-0.0020294,2.1696715
		c-0.0190887,0.5258691-0.2456665,0.7175376-0.7784576,0.7228169c-0.786972,0.0077143-1.5739441-0.0008118-2.3605194,0.0048733
		c-0.593689,0.0040586-0.6558228,0.0678148-0.6558228,0.6541903
		C213.2593384,7.7473326,213.2597351,11.3264971,213.2601471,14.9056606"/>
	<path fill="#F2EDE3" d="M171.716629,13.1965218c0-4.0619888-0.000412-8.1239786,0-12.1859674
		c0-0.1648696-0.0048828-0.330548,0.0077057-0.4950088c0.0296478-0.3938954,0.2322693-0.6188625,0.6253662-0.6265768
		c0.862915-0.0162435,1.7262268-0.0158376,2.5891418-0.0012176c0.3946991,0.0069026,0.6018066,0.2294315,0.6322632,0.6200801
		c0.0133972,0.1766426,0.0077209,0.3549117,0.0077209,0.5327718c0.0003967,6.9816852,0,13.9633694,0.0003967,20.9446487
		c0,0.9433174,0.032486,0.9749928,0.9896088,0.9753971c1.3075714,0.0004063,2.6151428-0.0024357,3.9223022,0.0016251
		c0.636322,0.0020313,0.8487091,0.2046623,0.8612823,0.84058c0.0121918,0.6472855,0.0125885,1.2949791,0,1.9422665
		c-0.0125732,0.6399784-0.2241516,0.8470764-0.8551941,0.8478909c-2.6403198,0.0028419-5.2806244,0.0028419-7.9209442,0
		c-0.6631165-0.0008144-0.8580322-0.1977615-0.8584442-0.8677883
		C171.7158051,21.5491238,171.7170258,17.3726196,171.716629,13.1965218"/>
	<path fill="#F2EDE3" d="M188.1181946,13.2631197c0,4.1115313,0.0003967,8.2230635-0.0003967,12.3345938
		c0,0.8434219-0.1531067,0.9948902-0.996933,0.9961071c-0.6854553,0.0012188-1.3705139,0.004467-2.0559692-0.0020294
		c-0.5944824-0.0056858-0.8040314-0.2107544-0.8064575-0.8028145c-0.0061035-1.3830986-0.0028534-2.7661972-0.0028534-4.1492977
		c0-6.8655462,0-13.7306862,0.000412-20.5958271c0-0.1778631-0.0056915-0.3561292,0.0077209-0.5327749
		c0.0300293-0.3922689,0.2347107-0.6156126,0.6289978-0.622921c0.8625183-0.0158376,1.7258301-0.0158376,2.5883484-0.0004059
		c0.3934937,0.0069026,0.5993652,0.231058,0.6294098,0.6221093c0.0130005,0.1640549,0.0073242,0.3297364,0.0073242,0.4946029
		C188.1181946,5.090816,188.1181946,9.1767645,188.1181946,13.2631197"/>
	<path fill="#F2EDE3" d="M82.8384705,7.0725136c0,0.9887981-0.0060959,1.9780025,0.0024338,2.967207
		c0.0048752,0.5388641,0.1214142,0.6460686,0.6517563,0.6545963c0.2282104,0.0036545,0.4568329,0.0069027,0.684639-0.0012188
		c1.2925415-0.0462923,2.1051102-0.6761179,2.30896-1.8878527c0.1876068-1.1167121,0.1815186-2.2525101,0.006897-3.3708477
		c-0.1778641-1.1410756-0.9262619-1.8228793-1.965004-1.8919117c-0.3423233-0.0227401-0.6830215-0.0288312-1.0245285-0.0284252
		c-0.5656662,0.0012176-0.6623154,0.0986753-0.6651535,0.6671836C82.834404,5.144866,82.8376541,6.1084862,82.8384705,7.0725136
		 M82.8372498,18.6408405v3.5393696c0,0.025177,0,0.0507584,0.0004044,0.0759354
		c0.0069046,0.6022129,0.1047668,0.6992645,0.7159119,0.7037315c0.2156296,0.0016251,0.4316635,0.0060921,0.6468811-0.0016232
		c1.364418-0.0487309,2.2106857-0.7963181,2.3191071-2.0864258c0.123848-1.4801502,0.133194-2.9647694-0.0016251-4.4441071
		c-0.1019287-1.1183376-0.8170319-1.9857178-1.9654083-2.0640907c-0.3423233-0.0231466-0.6834335-0.0316734-1.0249405-0.0320797
		c-0.5717621-0.0012188-0.686676,0.1137009-0.6887054,0.6935797C82.8348083,16.2303677,82.8376541,17.4356041,82.8372498,18.6408405
		 M78.9746399,13.2059031c0-4.1005669-0.0004044-8.20154,0-12.3021069c0.000412-0.8783458,0.1445618-1.0253456,1.0066681-1.0257514
		c1.5487823-0.0004059,3.0975571-0.008526,4.6463318,0.0040616c2.5286407,0.020711,4.6609573,1.6324289,5.3764648,4.0672688
		c0.6667709,2.26794,0.6574402,4.5269475-0.1551208,6.762403c-0.2005997,0.5522652-0.4974442,1.0562077-0.8596649,1.5187292
		c-0.1457901,0.1867952-0.1624374,0.3557234-0.0113754,0.5482044c0.953064,1.214983,1.3766022,2.6374702,1.4436035,4.1411753
		c0.0718765,1.6178112,0.1283264,3.2429314-0.1957245,4.8554649c-0.5892181,2.9339066-2.8169556,4.8026752-5.8097534,4.8172932
		c-1.4854202,0.0073109-2.9708557,0.0028419-4.4558792,0.0016251c-0.8223038-0.0008125-0.9847336-0.1604004-0.9851379-0.9721489
		C78.9742355,21.4833813,78.9746399,17.3446426,78.9746399,13.2059031"/>
	<path fill="#F2EDE3" d="M98.1951675,7.6561675c0,0.6854577-0.000412,1.3705106,0,2.0559688
		c0.0004044,0.5835323-0.0085297,1.1678791,0.0056839,1.7510042c0.0113678,0.4596796,0.0942078,0.5335875,0.5384598,0.5376472
		c0.4945984,0.0040617,0.9900131,0.0101528,1.4842072-0.0069027c0.6887054-0.0243654,1.1743774-0.3601913,1.4342651-1.003417
		c0.1291351-0.3191767,0.201828-0.6509418,0.2322769-0.9961071c0.1165466-1.3177214,0.0544205-2.6374722,0.0503616-3.9564114
		c-0.0016327-0.5153108-0.0369568-1.0411801-0.2136002-1.538218c-0.2351227-0.6615019-0.6529694-1.0915368-1.3932495-1.1743774
		c-0.4702377-0.0523832-0.9376373-0.0353279-1.4058456-0.0393896c-0.6460648-0.0052762-0.7305298,0.0816231-0.7317505,0.715508
		C98.1935425,5.2197042,98.1951675,6.4379358,98.1951675,7.6561675 M94.3325653,13.211709
		c0-4.1131544-0.000412-8.2267151,0-12.3398733c0.0003967-0.8413914,0.1534882-0.9928586,1.0009766-0.9932644
		c1.6502991-0.0008117,3.3005905-0.0064968,4.9512939,0.0024382c2.5473251,0.0133994,4.4420853,1.4594421,5.1311951,3.9048371
		c0.2558289,0.9079883,0.40242,1.8330324,0.3934937,2.7779739c-0.0117798,1.2673659,0.0670013,2.5371714-0.14254,3.798852
		c-0.2509537,1.515481-0.7573318,2.8957367-1.9844971,3.9113359c-0.1656799,0.1372547-0.1498413,0.291564-0.1116714,0.4795771
		c0.6342926,3.1316681,1.2629013,6.2653656,1.8927231,9.3982506c0.1047668,0.5222149,0.2156296,1.0436192,0.3143082,1.5670509
		c0.1218262,0.6476936-0.0661926,0.8738785-0.7163239,0.8755035c-0.7106323,0.0020294-1.421669,0.0016232-2.1327133,0
		c-0.6765289-0.0012188-0.8328629-0.1283207-0.9624023-0.8060627c-0.2351227-1.232851-0.4633408-2.4673252-0.696022-3.7009888
		c-0.3833313-2.0307903-0.7666702-4.0619888-1.1524429-6.0923748c-0.0889282-0.4690189-0.1713638-0.5315552-0.6635284-0.5335855
		c-0.2793884-0.0008116-0.5591736,0.0101528-0.8381424,0.0004063c-0.2566452-0.008934-0.3748169,0.1222296-0.3983688,0.3573484
		c-0.0162354,0.1636486-0.0219269,0.3289223-0.0219269,0.4937897c-0.0012207,3.0849686-0.0008087,6.1699352-0.0012207,9.2549038
		c-0.0004044,0.8876839-0.141716,1.0261574-1.0432129,1.0269699c-0.6476822,0.0008125-1.2949753,0.0028419-1.9426727-0.0012188
		c-0.685051-0.0040607-0.8750916-0.1936989-0.8750916-0.8893089C94.3317413,21.5399456,94.3325653,17.3760319,94.3325653,13.211709"
		/>
	<path fill="#F2EDE3" d="M115.1569672,19.5420475v0.0016251c0.419075,0,0.837738,0.0044651,1.256813-0.0012188
		c0.4434357-0.0056858,0.5100327-0.0897446,0.4369354-0.5246525c-0.1689224-1.0123501-0.3382568-2.0247002-0.5084076-3.0370502
		c-0.3362274-1.9999313-0.6700211-4.000267-1.0172195-5.9985733c-0.0243683-0.1400957,0.0345154-0.4064827-0.1819229-0.399579
		c-0.1989746,0.0064964-0.1453781,0.2680111-0.1713638,0.4133854c-0.1859818,1.0350914-0.3516617,2.0738373-0.5262833,3.1113634
		c-0.3350067,1.9873419-0.670433,3.9746838-1.0078812,5.9616203c-0.0531921,0.3126793,0.0300522,0.4876976,0.3869934,0.4763279
		C114.2684784,19.5310841,114.7131348,19.5420475,115.1569672,19.5420475 M119.974678,26.5939827
		c-0.3934937,0-0.7869797,0.0028439-1.1804733-0.0008125c-0.5201797-0.0048714-0.6805878-0.1145134-0.7865753-0.6326675
		c-0.1392822-0.6826153-0.2428284-1.3725414-0.3610001-2.0596237c-0.1084213-0.6290131-0.1530838-0.6692142-0.7764206-0.6696205
		c-1.1548843-0.0008125-2.3101654-0.0016251-3.4650574,0.0004063c-0.5774384,0.0012188-0.6387558,0.0479164-0.7435226,0.6265774
		c-0.1128922,0.6233273-0.2140045,1.249094-0.3147125,1.8748569c-0.1153259,0.7151031-0.2777557,0.8600712-0.9879837,0.86129
		c-0.7488098,0.0008125-1.4980164,0.0028439-2.2468262-0.0016232c-0.5904388-0.0032501-0.7630234-0.2046642-0.6558151-0.7723598
		c0.4308548-2.2793102,0.8669739-4.5582161,1.2986374-6.837122c0.9514389-5.0195198,1.9012527-10.0394449,2.8522873-15.0585575
		c0.2050705-1.0838196,0.4052658-2.1684537,0.6204834-3.249835c0.1388779-0.6976416,0.268013-0.7946965,0.9672775-0.7967257
		c0.659874-0.0020293,1.3197479-0.002841,1.9800262,0.0004059c0.6131821,0.0032499,0.7666779,0.1206068,0.8889008,0.7524628
		c0.3423309,1.7672467,0.6696243,3.5373375,1.005455,5.3062091c0.8767166,4.6207509,1.7554703,9.2410984,2.6321945,13.8618488
		c0.3784561,1.9926224,0.7544861,3.9856472,1.1301117,5.9790802c0.1185684,0.6294212-0.0337067,0.8117485-0.6765289,0.8158092
		C120.7616501,26.5964203,120.3681641,26.594389,119.974678,26.5939827"/>
	<path fill="#F2EDE3" d="M146.1968231,13.2307549c0,2.9322834-0.000412,5.8645668,0.0003967,8.7968502
		c0,0.1518726,0.0040588,0.3041515,0.0125885,0.4564304c0.0170593,0.3045578,0.1811066,0.4629288,0.486084,0.4653645
		c0.3301239,0.0028419,0.6618958,0.0223331,0.9895935-0.0052795c1.2616882-0.1063919,1.9459229-0.7012959,2.1680603-1.9040947
		c0.0710602-0.3841496,0.0937958-0.7816982,0.0946198-1.173563c0.006485-4.2776175,0.0020142-8.555234,0.006485-12.8328514
		c0.000412-0.483233-0.0146179-0.9640274-0.0730896-1.4431987c-0.1368561-1.1228032-0.8352966-1.9662266-1.9463196-2.046629
		c-0.3171539-0.0231462-0.6326752-0.0361397-0.9494171-0.0365455c-0.7211914-0.0016265-0.7886047,0.0649707-0.7886047,0.7747939
		C146.1964111,7.2650757,146.1968231,10.2477112,146.1968231,13.2307549 M142.3342133,13.2031412
		c0-4.1131544-0.000412-8.2263107,0.0003967-12.3394661c0-0.8393621,0.1535034-0.9912351,1.0018005-0.991641
		c1.5235901-0.0004058,3.0467834-0.0069026,4.5703888,0.0028441c2.6151428,0.017461,4.7141571,1.6035978,5.47229,4.0985351
		c0.2863007,0.9429131,0.4349213,1.9004412,0.4345093,2.884366c-0.0024261,4.3669548,0.0162506,8.7339077-0.0150146,13.1008615
		c-0.0105591,1.531723-0.3752289,2.9956322-1.2750854,4.2759933c-1.078949,1.534565-2.6021423,2.278904-4.4416656,2.3394089
		c-1.6231079,0.0531979-3.2494354,0.0154324-4.8745575,0.0129967c-0.6834259-0.0008125-0.8718414-0.1941051-0.8718414-0.8921528
		C142.3333893,21.5309715,142.3342133,17.3670578,142.3342133,13.2031412"/>
	<path fill="#F2EDE3" d="M233.017395,13.2348557c0-4.0753908,0-8.1507816,0-12.2261696
		c0-0.1522788-0.0032654-0.3049636,0.0052643-0.4568368c0.025589-0.4373466,0.2302551-0.6578462,0.6659698-0.6679987
		c0.6472778-0.0154317,1.2949829-0.0012176,1.9422607-0.0077143c0.3809052-0.0040616,0.5660858,0.2257788,0.6996765,0.5392686
		c0.6269836,1.4708123,1.2584381,2.9395952,1.8858185,4.4099979c1.513855,3.5478973,3.0260925,7.0966053,4.5431976,10.6432838
		c0.0487366,0.1145134,0.0621185,0.3264847,0.2440338,0.2769442c0.1380768-0.0373583,0.0787964-0.2225304,0.0787964-0.3423233
		c0.0028534-4.7738428,0.0024261-9.5472803,0.0024261-14.3211222c0-1.0907252,0.1149292-1.2068615,1.1889801-1.2064556
		c0.6477051,0,1.2949982-0.0048733,1.9427032,0.002841c0.5266876,0.0069026,0.7309265,0.2042561,0.7751923,0.7309402
		c0.0117798,0.1388764,0.0077209,0.2793794,0.0077209,0.4186649c0.0003967,8.1381931,0.0003967,16.2763844,0.0003967,24.4145756
		c0,0.114109,0.0024414,0.2286224-0.0036469,0.3427296c-0.032074,0.5957165-0.2355347,0.7983494-0.8227081,0.8048458
		c-0.5457764,0.0060902-1.0923615-0.0142136-1.6377258,0.0064964c-0.4763184,0.0182743-0.7508392-0.2006016-0.9303284-0.6253586
		c-0.8840332-2.0921097-1.778595-4.1797523-2.6707611-6.2682076c-1.2312164-2.8823357-2.4624481-5.7642651-3.6993561-8.6441641
		c-0.0540009-0.1250715-0.0560303-0.3658762-0.2464752-0.3220186c-0.1730042,0.0397949-0.1060028,0.2611065-0.1064148,0.4044523
		c-0.0028381,4.7612553-0.0024261,9.5221033-0.0024261,14.2829523c-0.000412,0.1652737,0.0040588,0.3305473-0.0056915,0.4950085
		c-0.0259857,0.4353142-0.233078,0.6578445-0.668808,0.6647472c-0.8377228,0.013401-1.6758728,0.013401-2.5136108-0.0004044
		c-0.4361267-0.0077171-0.644455-0.2298412-0.6679993-0.6655617c-0.0121765-0.2282143-0.006485-0.457243-0.006485-0.6854591
		C233.017395,21.2333584,233.017395,17.2343102,233.017395,13.2348557"/>
	<path fill="#F2EDE3" d="M220.0740356,13.2372923c-0.000412-4.0757961-0.000412-8.151186,0-12.2265778
		c0-0.1526847-0.0036469-0.3053696,0.0052643-0.4572427c0.025589-0.4365348,0.2306671-0.6541904,0.6663818-0.6675929
		c0.5331726-0.0158345,1.0663605-0.0073085,1.5999451-0.0077143c2.1457214-0.0004059,4.2910156-0.0012176,6.4367218,0.0008117
		c0.7272949,0.0008117,0.9226074,0.1957301,0.9299316,0.9282937c0.0056763,0.5839372,0.0052795,1.1678777,0.0003967,1.7518182
		c-0.006897,0.7593625-0.1977539,0.951031-0.945755,0.9522486c-1.3583221,0.0024381-2.7170563,0-4.0753937,0.0016265
		c-0.6736755,0.0008116-0.7536774,0.0775583-0.7544861,0.7333748c-0.0016327,1.9045-0.0016327,3.8090034,0.000412,5.7135043
		c0.0003967,0.6379461,0.0954285,0.7341881,0.7224121,0.7354059c1.3839111,0.0020304,2.7678223-0.0012178,4.1517334,0.0016251
		c0.6842346,0.0016232,0.8897095,0.1993828,0.8994598,0.8807802c0.0089417,0.6351051,0.0113678,1.2702093-0.0016174,1.9045019
		c-0.0130005,0.6391659-0.2245636,0.8442354-0.8572388,0.8458586c-1.4094849,0.004468-2.818573,0-4.2280731,0.0032482
		c-0.5920715,0.0012197-0.6858673,0.0942116-0.6862793,0.6858664c-0.0024414,2.412097-0.0024414,4.8246031,0,7.236701
		c0.000412,0.6050549,0.1031494,0.7049503,0.713089,0.7061691c1.3838959,0.0028419,2.767807-0.0008125,4.1517334,0.0020294
		c0.7012787,0.0016232,0.9010773,0.199791,0.9091949,0.9100189c0.006897,0.6095219,0.0081329,1.2190437-0.0008087,1.8281593
		c-0.0097504,0.6895199-0.2127838,0.8929634-0.888092,0.8933697c-2.6281281,0.0028419-5.2562714,0.0028419-7.8843842,0
		c-0.6663818-0.0008125-0.862915-0.1965408-0.863327-0.8629131
		C220.0732269,21.5659351,220.0744324,17.4016132,220.0740356,13.2372923"/>
	<path fill="#F2EDE3" d="M201.0210114,6.0883436c-0.3553162,0-0.7110443,0.0109644-1.0659485-0.0024352
		c-0.6066895-0.0227404-0.8145905-0.2306523-0.8625183-0.8324594c-0.0129852-0.1640549-0.0081177-0.3317623-0.0393829-0.4921646
		c-0.1802979-0.9246378-0.7825165-1.444416-1.6803436-1.4618771c-0.9453583-0.0186787-1.6011658,0.5161226-1.8147583,1.4594419
		c-0.2172546,0.9595599,0.0600891,1.8383098,0.4446564,2.6890421c0.5806885,1.2852335,1.4728394,2.3653984,2.3568573,3.4467831
		c1.2044373,1.4732475,2.4649048,2.903451,3.4662781,4.5318213c0.9916382,1.6125307,1.7169037,3.3245535,1.7043152,5.2509832
		c-0.0219269,3.375721-2.7747345,6.0708542-6.1472015,6.0684166c-3.373703-0.0024357-6.1281128-2.7548256-6.134613-6.1301403
		c-0.0016174-0.8251495,0.176239-1.0050411,1.0046387-1.0070724c0.6728668-0.0016232,1.3457336-0.0040607,2.0186157,0.0016251
		c0.5636292,0.0048733,0.769104,0.2127857,0.8247375,0.769516c0.0495453,0.50313,0.0710602,1.0091019,0.2814178,1.4870548
		c0.3813019,0.8665695,1.0623016,1.2750816,1.9759674,1.2941685c0.8462524,0.017868,1.5378113-0.3155231,1.9629669-1.0761051
		c0.5425262-0.9705257,0.5315704-1.9970875,0.1941071-3.0187778c-0.4625092-1.4001541-1.3656311-2.5387936-2.2740173-3.6672821
		c-1.2966156-1.610096-2.7024536-3.1357279-3.815918-4.8879509c-0.837326-1.3173141-1.4468536-2.7130013-1.690094-4.2808652
		c-0.5303345-3.4187648,2.0218658-6.4793668,5.4820404-6.5037336c2.6732178-0.0186786,4.9350586,1.816792,5.4662018,4.444109
		c0.0726929,0.3593793,0.1421356,0.725255,0.1551361,1.0903192c0.0211182,0.6026192-0.1859894,0.8040314-0.7849579,0.823523
		c-0.3423157,0.0113702-0.6854553,0.0024366-1.028183,0.0024366V6.0883436z"/>
	<path fill="#F2EDE3" d="M57.2437057,16.683588c-0.1238518-2.8360415-2.5233612-5.0353556-5.3598099-4.9115019
		c-2.5079346,0.1096411-4.4908104,2.0173903-4.8607445,4.3965979c-0.0536041,0.3443527-0.0584755,0.7861633-0.0507622,0.963213
		c0.1238556,2.8368549,2.5237694,5.0353584,5.3598137,4.9119091C55.1686516,21.9199543,57.3675613,19.520443,57.2437057,16.683588
		 M62.3115501,16.6092758c0.1238518,5.6765537-4.3775139,10.3793335-10.0540657,10.5031872
		c-4.5695839,0.0998955-8.4394989-2.6699581-9.8250351-7.0036144c-0.0674095-0.2111607-0.3995819-0.3890209-0.6464767-0.161211
		c-0.4166336,0.3504429-1.4622841,1.2535591-2.0510979,1.7282639c-0.6838303,0.5319614-1.5479622-0.0182743-1.2157936-0.8925591
		c0.9023056-2.3739262,2.3515968-6.4342918,2.3515968-6.4342918s0-10.3817692,0-10.9458103
		c0-0.8531673,0.1746101-1.3469584,0.9152946-1.7834903c0.4962273-0.2931877,2.289463-1.3518319,2.9225388-1.6779125
		c0.8462639-0.4361259,1.296196,0.1023341,1.296196,0.7691122s0,6.7688999,0,7.1534548
		c0,0.46171,0.490139,0.5839386,0.7297211,0.4101372c1.7185211-1.2458434,3.463028-1.6840019,5.0743408-1.7193298
		C57.4857292,6.4313583,62.1876945,10.932724,62.3115501,16.6092758 M67.8991699,11.794013
		C67.2502594,1.8914157,58.6962433-5.609643,48.7940521-4.9607325C38.8914566-4.31182,31.3899918,4.2417908,32.0389023,14.1443882
		c0.2615128,3.9893036,1.8074493,7.5875511,4.2061501,10.4215641c0.3744011,0.5851574,0.1206017,0.9116421-0.1981697,1.3493958
		c-0.2899361,0.3979549-0.8880882,1.1500092-1.2860451,1.741663c-0.3983612,0.5912495-0.2367439,0.9952965,0.5080032,1.4825878
		c0.9372253,0.6131763,4.7929268,2.5733109,11.4087372,2.7755375C49.6711807,32.0065041,54.3244171,31.374649,57.7444,29.66222
		C64.5579681,26.2503605,68.4043274,19.4993267,67.8991699,11.794013"/>
</g>
</svg>
