<?xml version="1.0" encoding="utf-8"?>
<!-- Generator: Adobe Illustrator 17.0.0, SVG Export Plug-In . SVG Version: 6.00 Build 0)  -->
<svg version="1.2" baseProfile="tiny" id="Ebene_1" xmlns="http://www.w3.org/2000/svg" xmlns:xlink="http://www.w3.org/1999/xlink"
	 x="0px" y="0px" width="160.0145874px" height="22.8598995px" viewBox="0 0 160.0145874 22.8598995" xml:space="preserve">
<g>
	<g>
		<path fill="#F2EDE3" d="M111.989296,6.6367002c0-4.7323999-4.149498-5.5312004-7.9589996-5.5312004h-8.1122971v21.7544003
			h8.9120941c3.8701019,0,8.1738052-1.5058994,8.1738052-6.0527c0-2.8261995-1.905304-4.947299-4.7637024-5.3144999v-0.0625
			C110.4833984,10.7227001,111.989296,9.0635004,111.989296,6.6367002 M107.1952972,7.4355998
			c0,1.7509999-1.5361023,2.3662-3.010704,2.3662h-3.4736938V5.1620998h3.2578964
			C105.4745941,5.1620998,107.1952972,5.6230998,107.1952972,7.4355998 M108.2089996,16.2544003
			c0,1.9043007-1.6895065,2.5508003-3.1953049,2.5508003h-4.3027954v-4.9473009h3.6269989
			C105.9042969,13.8578997,108.2089996,14.1957998,108.2089996,16.2544003"/>
	</g>
	<polygon fill="#F2EDE3" points="118.3378983,1.1055 118.3378983,22.8598995 133.6698914,22.8598995 133.6698914,18.4361 
		123.1308975,18.4361 123.1308975,14.0102997 132.5634918,14.0102997 132.5634918,9.5868998 123.1308975,9.5868998 
		123.1308975,5.5293002 133.1171875,5.5293002 133.1171875,1.1055 	"/>
	<polygon fill="#F2EDE3" points="152.9160004,1.1055 144.4677887,10.1386995 144.4677887,1.1055 139.6737976,1.1055 
		139.6737976,22.8598995 144.4677887,22.8598995 144.4677887,12.5356998 153.3173981,22.8598995 160.0145874,22.8598995 
		149.5058899,11.2153997 159.1855011,1.1055 	"/>
	<g>
		<path fill="#F2EDE3" d="M48.2123985,11.4301996C48.2123985,4.4551001,43.2650986,0,36.4740982,0
			c-6.789999,0-11.7377987,4.4551001-11.7377987,11.4301996c0,6.9746008,4.9477997,11.4296999,11.7377987,11.4296999
			C43.2650986,22.8598995,48.2123985,18.4048004,48.2123985,11.4301996 M43.2343979,11.4301996
			c0,4.0566006-2.6733971,7.0059004-6.7602997,7.0059004s-6.7596989-2.9492998-6.7596989-7.0059004
			c0-4.0560994,2.6728001-7.0062995,6.7596989-7.0062995S43.2343979,7.3741002,43.2343979,11.4301996"/>
	</g>
	<polygon fill="#F2EDE3" points="53.0736961,1.1055 53.0736961,22.8598995 66.7480011,22.8598995 66.7480011,18.4361 
		57.8666954,18.4361 57.8666954,1.1055 	"/>
	<g>
		<path fill="#F2EDE3" d="M90.8778992,12.0434999c0-7.9575-5.868103-10.9379997-12.875-10.9379997h-7.1893997v21.7544003h7.8353958
			C85.1327972,22.8598995,90.8778992,19.0806007,90.8778992,12.0434999 M85.9003983,11.7993002
			c0,4.947299-3.3496017,6.6367998-7.8047028,6.6367998h-2.4888V5.5293002h2.8266983
			C82.4901962,5.5293002,85.9003983,7.5274,85.9003983,11.7993002"/>
		<path fill="#F2EDE3" d="M10.2118998,0.1739C4.2251,0.7481,0,5.0078001,0,11.4203997
			c0,6.9024,4.8969998,11.312501,11.6171999,11.312501c3.1626005,0,6.233901-0.6074009,9.0327005-2.0683002V9.4131002h-8.4248009
			v4.3803997h3.8628006v3.4961004c-0.8817997,0.4862995-2.4028006,1.0643997-4.4707003,1.0643997
			c-4.0453997,0-6.6904001-2.9179001-6.6904001-6.9336004c0-3.5277996,2.0444002-6.2103996,5.2851-6.8080997V0.1739z"/>
	</g>
</g>
</svg>
