<?xml version="1.0" encoding="utf-8"?>
<!-- Generator: Adobe Illustrator 17.0.0, SVG Export Plug-In . SVG Version: 6.00 Build 0)  -->
<svg version="1.2" baseProfile="tiny" id="Ebene_1" xmlns="http://www.w3.org/2000/svg" xmlns:xlink="http://www.w3.org/1999/xlink"
	 x="0px" y="0px" width="301.4902649px" height="140.1907654px" viewBox="0 0 301.4902649 140.1907654" xml:space="preserve">
<path display="none" fill="#1EBCBE" d="M99.4954605,0.6914625c-0.401535-0.4771832-1.2324524-0.7783036-1.8464661-0.6691561
	L26.291708,12.7067032c-0.6140194,0.1091471-1.2902546,0.6781759-1.502739,1.2645063L0.0953953,82.1105804
	c-0.212485,0.5863342-0.0578068,1.4564819,0.3437271,1.9336624l46.6635895,55.45504
	c0.401535,0.4771729,1.2324486,0.7783051,1.8464661,0.6691437l71.3572235-12.6843872
	c0.6140137-0.1091461,1.2902527-0.6781845,1.502739-1.2645187l24.693573-68.1394196
	c0.2124786-0.5863304,0.0578003-1.4564896-0.3437347-1.93367L99.4954605,0.6914625z M79.1099854,29.0580082
	c-0.3683853-0.5032158-0.1625214-0.8597813,0.4574661-0.7923641l2.5873489,0.2813396
	c0.6199875,0.0674171,1.3331223-0.344305,1.5847473-0.914938l1.0500488-2.3813343
	c0.2516174-0.5706329,0.6633453-0.5706272,0.9149551,0.0000095l1.0499725,2.3813133
	c0.2516022,0.5706387,0.9647293,0.9823666,1.5847168,0.9149494l2.5873489-0.2813396
	c0.6199875-0.0674171,0.8258514,0.2891483,0.4574661,0.7923641l-1.5373154,2.0999928
	c-0.3683853,0.5032158-0.3683853,1.326664-0.0000076,1.8298836l1.5373306,2.1000443
	c0.3683777,0.5032196,0.1625137,0.8597832-0.4574738,0.7923698l-2.5873489-0.2813416
	c-0.6199875-0.0674171-1.333107,0.3443146-1.5847092,0.9149513l-1.0499954,2.3814278
	c-0.2516022,0.5706406-0.6633224,0.5706444-0.9149323,0.0000114l-1.0500717-2.3814468
	c-0.2516098-0.5706367-0.9647446-0.9823608-1.5847321-0.9149437l-2.5873489,0.2813416
	c-0.6199875,0.0674133-0.8258514-0.2891502-0.4574738-0.7923698l1.5373306-2.1000443
	c0.3683777-0.5032196,0.3683777-1.3266678-0.0000076-1.8298836L79.1099854,29.0580082z M77.8663483,45.0057907
	c0-0.6236458,0.5102539-1.1338997,1.1338959-1.1338997h12.7558212c0.6236496,0,1.1339035,0.5102539,1.1339035,1.1338997v22.2945786
	c0,0.623642-0.5102539,1.1338959-1.1339035,1.1338959H79.0002441c-0.623642,0-1.1338959-0.5102539-1.1338959-1.1338959V45.0057907z
	 M57.8229485,53.1011887c0-0.6236458,0.5102539-1.1338997,1.1338997-1.1338997h12.7558212
	c0.6236496,0,1.1339035,0.5102539,1.1339035,1.1338997v14.1991806c0,0.623642-0.5102539,1.1338959-1.1339035,1.1338959H58.9568481
	c-0.6236458,0-1.1338997-0.5102539-1.1338997-1.1338959V53.1011887z M37.7795525,61.4557419
	c0-0.6236458,0.5102539-1.1338997,1.1338997-1.1338997h12.7558212c0.6236458,0,1.1338997,0.5102539,1.1338997,1.1338997v5.8446274
	c0,0.623642-0.5102539,1.1338959-1.1338997,1.1338959H38.9134521c-0.6236458,0-1.1338997-0.5102539-1.1338997-1.1338959V61.4557419z
	 M32.1054802,73.3681564c0-0.623642,0.5102539-1.1339035,1.1338997-1.1339035h62.467308
	c0.6236496,0,1.1339035,0.5102615,1.1339035,1.1339035v2.7751083c0,0.623642-0.5102539,1.1338959-1.1339035,1.1338959h-62.467308
	c-0.6236458,0-1.1338997-0.5102539-1.1338997-1.1338959V73.3681564z M91.7560654,80.6776733
	c0.6236496,0,1.1339035,0.5102615,1.1339035,1.1339035v14.1991196c0,0.623642-0.5102539,1.1338959-1.1339035,1.1338959H79.0002441
	c-0.623642,0-1.1338959-0.5102539-1.1338959-1.1338959V81.8115768c0-0.623642,0.5102539-1.1339035,1.1338959-1.1339035H91.7560654z
	 M51.1640854,80.6776733c0.6236458,0,1.1338997,0.5102615,1.1338997,1.1339035v14.1991196
	c0,0.623642-0.5102539,1.1338959-1.1338997,1.1338959H38.4082031c-0.6236458,0-1.1338997-0.5102539-1.1338997-1.1338959V81.8115768
	c0-0.623642,0.5102539-1.1339035,1.1338997-1.1339035H51.1640854z M98.0173492,104.6686554
	c0,0.623642-0.5102615,1.1338959-1.1339035,1.1338959H32.0625648c-0.6236439,0-1.1339016-0.5102539-1.1339016-1.1338959v-2.7751083
	c0-0.623642,0.5102577-1.1339035,1.1339016-1.1339035h64.8208771c0.623642,0,1.1339035,0.5102615,1.1339035,1.1339035V104.6686554z"
	/>
<g>
	<path fill="#F2EDE3" d="M171.2148743,43.3603821h1.7265015l9.9003906,14.5860023l9.9004059-14.5860023h1.726593v24.6625977
		h-1.8320923V46.6015816l-9.7597046,14.1988029h-0.1405945l-9.7597961-14.1988029v21.4213982h-1.7617035V43.3603821z"/>
	<path fill="#F2EDE3" d="M201.8017731,43.3603821h10.1826019c2.7832031,0,5.0381012,0.8101006,6.4120941,2.1841011
		c1.0214996,1.0219994,1.5850067,2.3256989,1.5850067,3.8759995v0.0703011c0,3.3471985-2.183609,5.0381012-4.1923981,5.8485985
		c2.9599915,0.7749023,5.566391,2.466301,5.566391,5.8838005v0.0703011c0,4.122097-3.5224915,6.729496-8.842804,6.729496
		h-10.7108917V43.3603821z M211.7724762,54.740284c3.6991882,0,6.3417969-1.7969017,6.3417969-5.0732002V49.596283
		c0-2.7128983-2.219696-4.544899-6.1651001-4.544899h-8.3153992v9.6889H211.7724762z M212.5829773,66.3315811
		c4.2276001,0,6.9052887-1.9375,6.9052887-5.0380974v-0.0703011c0-3.030201-2.6425934-4.7915001-7.503891-4.7915001h-8.3506012
		v9.8998985H212.5829773z"/>
	<path fill="#F2EDE3" d="M226.8564758,57.7705841v-14.410202h1.8320007v14.233902
		c0,5.8134995,3.1356964,9.160202,8.3505859,9.160202c5.0029144,0,8.2090149-3.0298042,8.2090149-8.983902v-14.410202h1.8319855
		V57.559185c0,7.081501-4.1220856,10.8514977-10.1112976,10.8514977
		C231.0497742,68.4106827,226.8564758,64.6758804,226.8564758,57.7705841z"/>
	<path fill="#F2EDE3" d="M254.0253754,43.3603821h10.3583832c3.030304,0,5.4609985,0.9512024,6.9403992,2.4307022
		c1.1631165,1.1630974,1.8682251,2.8187981,1.8682251,4.5806007v0.0702972c0,4.1220016-3.0653992,6.4829025-7.2226257,7.046402
		l8.1386108,10.5345955h-2.3251953l-7.8573914-10.2172966h-8.0683136v10.2172966h-1.8320923V43.3603821z M264.1728821,56.1494827
		c4.1221008,0,7.1875-2.078598,7.1875-5.6371994v-0.0703011c0-3.3120003-2.6074219-5.3905983-7.0820007-5.3905983h-8.4209137
		v11.0980988H264.1728821z"/>
	<path fill="#F2EDE3" d="M278.4111633,55.7622833v-0.0708008c0-6.658699,4.8261108-12.7538986,12.1904297-12.7538986
		c4.016571,0,6.5526733,1.1977005,9.0194702,3.2411995l-1.1981812,1.3740005
		c-1.9375-1.6908989-4.1924133-2.9594994-7.9268188-2.9594994c-5.9902039,0-10.1825867,5.0737991-10.1825867,11.0278969v0.0703011
		c0,6.3773994,3.9815063,11.1338043,10.5693054,11.1338043c3.1358032,0,6.0605774-1.3037033,7.8574829-2.8189011v-7.081501
		h-8.2442017v-1.6914024h10.0059204v9.5127029c-2.2197266,1.9730988-5.6729126,3.6996994-9.6895142,3.6996994
		C283.0263672,68.4458847,278.4111633,62.7026825,278.4111633,55.7622833z"/>
</g>
<g>
	<g>
		<path fill="#F2EDE3" d="M146.4695587,56.7623329c-0.0748291-0.2315063-0.1714478-0.4505615-0.3105469-0.6159058
			l-10.1150513-12.0206909v23.897213h-1.8324585V56.4668617h-15.7842407v11.5560875h-1.8320923V43.3603554h1.8320923v11.4151001
			h15.7842407V43.3603554h1.1884155l-35.90448-42.6688843c-0.4014893-0.4772339-1.2324219-0.7783203-1.8464355-0.6691895
			L26.2917004,12.7066679c-0.6140137,0.1091919-1.2902222,0.6782227-1.5027466,1.2645264L0.0954105,82.1105957
			c-0.2125244,0.5863037-0.0578003,1.4564209,0.343689,1.9336548l46.6636353,55.4550171
			c0.4014893,0.4771729,1.2324219,0.7783203,1.8464355,0.6691284l71.3572388-12.6843872
			c0.6140137-0.1091309,1.2902222-0.6781616,1.5027466-1.2645264l7.2332153-19.9592896
			c-1.2459717,0.5023804-2.7022095,0.7677002-4.3084717,0.7677002c-3.7695312,0-7.328125-1.3037109-10.2875977-3.9463501
			l2.6069946-3.1005859c2.3607788,2.0440063,4.7210693,3.2070923,7.7865601,3.2070923
			c2.6777344,0,4.3685913-1.2333984,4.3685913-3.1005859v-0.0712891c0-1.7606812-0.9862671-2.7128906-5.5668945-3.7695312
			c-5.2494507-1.2685547-8.2089844-2.8183594-8.2089844-7.3632812v-0.0703125c0-4.2284546,3.5234985-7.1524048,8.4205322-7.1524048
			c3.593689,0,6.4476929,1.0917969,8.9491577,3.100647l-2.3251953,3.2763672
			c-2.2196655-1.656311-4.4394531-2.5371094-6.694397-2.5371094c-2.5366211,0-4.0166016,1.3037109-4.0166016,2.9248047v0.0703125
			c0,1.9022827,1.1275024,2.7479858,5.8486938,3.8759766c3.5085449,0.8529053,5.8790283,1.9807739,7.0581055,3.8704834
			l3.7012939-10.2132568h-0.0093994v-4.015625h1.4645996l5.0700684-13.9902954h-1.6367798L146.4695587,56.7623329z
			 M80.6472931,31.1579609l-1.5372925-2.0999756c-0.3684082-0.5032349-0.1625366-0.8598022,0.4574585-0.7923584l2.5873413,0.281311
			c0.6199951,0.0674438,1.3331299-0.3442993,1.5847778-0.914917l1.0499878-2.3813477
			c0.2516479-0.5706177,0.6633911-0.5706177,0.914978,0.000061l1.0499878,2.3812866
			c0.2515869,0.5706177,0.9647217,0.9823608,1.5847168,0.914917l2.5873413-0.281311
			c0.6199951-0.0674438,0.8258667,0.2891235,0.4574585,0.7923584l-1.5372925,2.0999756
			c-0.3684082,0.5032349-0.3684082,1.3266621,0,1.8298969l1.5372925,2.1000366
			c0.3684082,0.5032349,0.1625366,0.8598022-0.4574585,0.7923584l-2.5873413-0.281311
			c-0.6199951-0.0674438-1.3331299,0.3442993-1.5847168,0.914978l-1.0499878,2.3814087
			c-0.2515869,0.5706177-0.6633301,0.5706177-0.914917,0l-1.0501099-2.3814697
			c-0.2515869-0.5706177-0.9647217-0.9823608-1.5847168-0.914917l-2.5873413,0.281311
			c-0.6199951,0.0674438-0.8258667-0.2891235-0.4574585-0.7923584l1.5372925-2.1000366
			C81.0157013,32.484623,81.0157013,31.6611958,80.6472931,31.1579609z M77.8663483,45.0058022
			c0-0.6236572,0.5102539-1.1339111,1.1339111-1.1339111h12.7557983c0.6236572,0,1.1339111,0.5102539,1.1339111,1.1339111V67.300354
			c0,0.6236572-0.5102539,1.1339111-1.1339111,1.1339111H79.0002594c-0.6236572,0-1.1339111-0.5102539-1.1339111-1.1339111
			V45.0058022z M57.8229485,53.1012001c0-0.6236572,0.5102539-1.1339111,1.1339111-1.1339111h12.7558022
			c0.6236572,0,1.1339111,0.5102539,1.1339111,1.1339111V67.300354c0,0.6236572-0.5102539,1.1339111-1.1339111,1.1339111H58.9568596
			c-0.6236572,0-1.1339111-0.5102539-1.1339111-1.1339111V53.1012001z M37.7795525,61.4557533
			c0-0.6236572,0.5102539-1.1339111,1.1339111-1.1339111h12.7557983c0.6236572,0,1.1339111,0.5102539,1.1339111,1.1339111v5.8446007
			c0,0.6236572-0.5102539,1.1339111-1.1339111,1.1339111H38.9134636c-0.6236572,0-1.1339111-0.5102539-1.1339111-1.1339111
			V61.4557533z M32.1054802,73.3681641c0-0.6236572,0.5102539-1.1339111,1.1339111-1.1339111h62.467289
			c0.6236572,0,1.1339111,0.5102539,1.1339111,1.1339111v2.7750854c0,0.6236572-0.5102539,1.1339111-1.1339111,1.1339111h-62.467289
			c-0.6236572,0-1.1339111-0.5102539-1.1339111-1.1339111V73.3681641z M92.8899689,81.8115845v14.1990967
			c0,0.6236572-0.5102539,1.1339111-1.1339111,1.1339111H79.0002594c-0.6236572,0-1.1339111-0.5102539-1.1339111-1.1339111
			V81.8115845c0-0.6236572,0.5102539-1.1339111,1.1339111-1.1339111h12.7557983
			C92.379715,80.6776733,92.8899689,81.1879272,92.8899689,81.8115845z M52.2979851,81.8115845v14.1990967
			c0,0.6236572-0.5102539,1.1339111-1.1339111,1.1339111H38.4082146c-0.6236572,0-1.1339111-0.5102539-1.1339111-1.1339111
			V81.8115845c0-0.6236572,0.5102539-1.1339111,1.1339111-1.1339111h12.7558594
			C51.7877312,80.6776733,52.2979851,81.1879272,52.2979851,81.8115845z M98.0173492,104.6686401
			c0,0.6236572-0.5102539,1.1339111-1.1339111,1.1339111H32.0625725c-0.6236553,0-1.1339092-0.5102539-1.1339092-1.1339111
			v-2.7750854c0-0.6236572,0.5102539-1.1339111,1.1339092-1.1339111h64.8208618
			c0.6236572,0,1.1339111,0.5102539,1.1339111,1.1339111V104.6686401z"/>
		<polygon fill="#F2EDE3" points="136.0439606,43.3603554 135.3999176,43.3603554 136.0439606,44.1257362 		"/>
		<path fill="#F2EDE3" d="M154.5097809,43.1841469h-1.7617188l-6.2785034,13.578186
			c0.1411743,0.4367065,0.1720581,0.9345703,0.0331421,1.317749l-3.6032715,9.9428673h0.265625l3.1357422-6.9056969h14.5507812
			l3.1356812,6.9056969h2.0087891L154.5097809,43.1841469z M147.0761871,59.4614906l6.5175781-14.269043l6.4833984,14.269043
			H147.0761871z"/>
		<path fill="#F2EDE3" d="M133.5419464,99.6645508v-0.0703125c0-1.3372803-0.2958374-2.4334106-0.8690796-3.3521118
			l-3.6304932,10.0180664C131.8140411,105.1427612,133.5419464,102.8485107,133.5419464,99.6645508z"/>
		<polygon fill="#F2EDE3" points="144.1865997,86.0288696 144.1865997,106.675354 148.5556793,106.675354 148.5556793,86.0288696 
			156.3769684,86.0288696 156.3769684,82.0132446 137.829361,82.0132446 136.3741608,86.0288696 		"/>
	</g>
	<path fill="#F2EDE3" d="M166.5263672,81.8364868h4.0166016l10.8516083,24.8388977h-4.5801086l-2.5009918-5.9541016h-11.6621094
		l-2.5370941,5.9541016h-4.4394989L166.5263672,81.8364868z M172.7275848,96.8813858l-4.2627106-9.8652039l-4.2285004,9.8652039
		H172.7275848z"/>
	<path fill="#F2EDE3" d="M185.6279755,82.0132828h10.9920959c3.1006012,0,5.5323029,0.9160004,7.1172028,2.4657974
		c1.3036957,1.3389053,2.0439911,3.1709061,2.0439911,5.3203049v0.0702972c0,4.0518036-2.4316864,6.482399-5.8837891,7.4697037
		l6.6581879,9.3359985h-5.1083984l-6.0596008-8.5967026h-5.4257965v8.5967026h-4.3338928V82.0132828z M196.3036652,94.238884
		c3.1006012,0,5.0733032-1.6211014,5.0733032-4.1221008v-0.0712967c0-2.6416016-1.9023895-4.0869064-5.1083832-4.0869064h-6.3067169
		v8.280304H196.3036652z"/>
	<path fill="#F2EDE3" d="M217.0595856,86.0288849h-7.8213196v-4.0156021h20.0117035v4.0156021h-7.8213043v20.6464996h-4.3690796
		V86.0288849z"/>
	<path fill="#F2EDE3" d="M233.4472656,96.2114868v-14.198204h4.3339996v14.0223999
		c0,4.580101,2.360321,7.0458984,6.2363129,7.0458984c3.8398895,0,6.2001953-2.3251953,6.2001953-6.8700943v-14.198204h4.3339996
		v13.9872971c0,7.3633041-4.157196,11.0625-10.6054993,11.0625
		C237.5341644,107.0630798,233.4472656,103.363884,233.4472656,96.2114868z"/>
	<path fill="#F2EDE3" d="M260.5107727,82.0132828h9.7246094c5.7421875,0,9.3710938,3.2762985,9.3710938,8.2441025v0.0702972
		c0,5.5313034-4.4385071,8.4208984-9.8643188,8.4208984h-4.8973999v7.9268036h-4.3339844V82.0132828z M269.882782,94.8374863
		c3.2763977,0,5.3203735-1.8320007,5.3203735-4.4043045v-0.0702972c0-2.8887024-2.0791016-4.4043045-5.3203735-4.4043045h-5.0380249
		v8.8789062H269.882782z"/>
	<path fill="#F2EDE3" d="M282.3935852,103.0815811l2.6073914-3.1006012
		c2.3603821,2.0440063,4.7216797,3.2070999,7.7861023,3.2070999c2.6777954,0,4.3692017-1.2333984,4.3692017-3.1005936v-0.0713043
		c0-1.7606964-0.9862976-2.7128983-5.5664062-3.7695007c-5.25-1.2686005-8.2090149-2.8183975-8.2090149-7.3632965v-0.0703049
		c0-4.2284927,3.522522-7.1523972,8.4199219-7.1523972c3.593811,0,6.4482727,1.0918045,8.9491882,3.1006012l-2.3251953,3.2763977
		c-2.219696-1.6562958-4.4393921-2.5371017-6.6943054-2.5371017c-2.5371094,0-4.0166016,1.3037033-4.0166016,2.9248047v0.0702972
		c0,1.902298,1.1278992,2.7480011,5.8486023,3.8759995c5.2149048,1.2675018,7.9277954,3.1347046,7.9277954,7.2226028v0.0702972
		c0,4.615303-3.6289062,7.3633041-8.8085938,7.3633041C288.9120789,107.0278854,285.3534546,105.7241821,282.3935852,103.0815811z"
		/>
</g>
<g display="none">
	<path display="inline" fill="#414042" d="M116.5951767,43.3603821h1.8320999v11.4151001h15.7841949V43.3603821h1.8325043
		v24.6625977h-1.8325043V56.4668846h-15.7841949v11.5560951h-1.8320999V43.3603821z"/>
	<path display="inline" fill="#414042" d="M152.7480774,43.184185h1.7616882l11.4863129,24.8387947h-2.0088043l-3.1356964-6.9056969
		H146.300766l-3.1356964,6.9056969h-1.9023895L152.7480774,43.184185z M160.077179,59.461483l-6.4834137-14.269001
		l-6.5175934,14.269001H160.077179z"/>
	<path display="inline" fill="#414042" d="M171.2148743,43.3603821h1.7265015l9.9003906,14.5860023l9.9004059-14.5860023h1.726593
		v24.6625977h-1.8320923V46.6015816l-9.7597046,14.1988029h-0.1405945l-9.7597961-14.1988029v21.4213982h-1.7617035V43.3603821z"/>
	<path display="inline" fill="#414042" d="M201.8017731,43.3603821h10.1826019c2.7832031,0,5.0381012,0.8101006,6.4120941,2.1841011
		c1.0214996,1.0219994,1.5850067,2.3256989,1.5850067,3.8759995v0.0703011c0,3.3471985-2.183609,5.0381012-4.1923981,5.8485985
		c2.9599915,0.7749023,5.566391,2.466301,5.566391,5.8838005v0.0703011c0,4.122097-3.5224915,6.729496-8.842804,6.729496
		h-10.7108917V43.3603821z M211.7724762,54.740284c3.6991882,0,6.3417969-1.7969017,6.3417969-5.0732002V49.596283
		c0-2.7128983-2.219696-4.544899-6.1651001-4.544899h-8.3153992v9.6889H211.7724762z M212.5829773,66.3315811
		c4.2276001,0,6.9052887-1.9375,6.9052887-5.0380974v-0.0703011c0-3.030201-2.6425934-4.7915001-7.503891-4.7915001h-8.3506012
		v9.8998985H212.5829773z"/>
	<path display="inline" fill="#414042" d="M226.8564758,57.7705841v-14.410202h1.8320007v14.233902
		c0,5.8134995,3.1356964,9.160202,8.3505859,9.160202c5.0029144,0,8.2090149-3.0298042,8.2090149-8.983902v-14.410202h1.8319855
		V57.559185c0,7.081501-4.1220856,10.8514977-10.1112976,10.8514977
		C231.0497742,68.4106827,226.8564758,64.6758804,226.8564758,57.7705841z"/>
	<path display="inline" fill="#414042" d="M254.0253754,43.3603821h10.3583832c3.030304,0,5.4609985,0.9512024,6.9403992,2.4307022
		c1.1631165,1.1630974,1.8682251,2.8187981,1.8682251,4.5806007v0.0702972c0,4.1220016-3.0653992,6.4829025-7.2226257,7.046402
		l8.1386108,10.5345955h-2.3251953l-7.8573914-10.2172966h-8.0683136v10.2172966h-1.8320923V43.3603821z M264.1728821,56.1494827
		c4.1221008,0,7.1875-2.078598,7.1875-5.6371994v-0.0703011c0-3.3120003-2.6074219-5.3905983-7.0820007-5.3905983h-8.4209137
		v11.0980988H264.1728821z"/>
	<path display="inline" fill="#414042" d="M278.4111633,55.7622833v-0.0708008
		c0-6.658699,4.8261108-12.7538986,12.1904297-12.7538986c4.016571,0,6.5526733,1.1977005,9.0194702,3.2411995l-1.1981812,1.3740005
		c-1.9375-1.6908989-4.1924133-2.9594994-7.9268188-2.9594994c-5.9902039,0-10.1825867,5.0737991-10.1825867,11.0278969v0.0703011
		c0,6.3773994,3.9815063,11.1338043,10.5693054,11.1338043c3.1358032,0,6.0605774-1.3037033,7.8574829-2.8189011v-7.081501
		h-8.2442017v-1.6914024h10.0059204v9.5127029c-2.2197266,1.9730988-5.6729126,3.6996994-9.6895142,3.6996994
		C283.0263672,68.4458847,278.4111633,62.7026825,278.4111633,55.7622833z"/>
</g>
<g display="none">
	<path display="inline" fill="#414042" d="M114.4462738,103.0815811l2.6070023-3.1006012
		c2.3607941,2.0440063,4.7210999,3.2070999,7.7865982,3.2070999c2.6777115,0,4.3685913-1.2333984,4.3685913-3.1005936v-0.0713043
		c0-1.7606964-0.9862976-2.7128983-5.5668793-3.7695007c-5.2495117-1.2686005-8.2089996-2.8183975-8.2089996-7.3632965v-0.0703049
		c0-4.2284927,3.5234833-7.1523972,8.4204865-7.1523972c3.5936966,0,6.4476929,1.0918045,8.9492035,3.1006012l-2.3252106,3.2763977
		c-2.219696-1.6562958-4.4394836-2.5371017-6.6943893-2.5371017c-2.5366058,0-4.0166016,1.3037033-4.0166016,2.9248047v0.0702972
		c0,1.902298,1.1275101,2.7480011,5.8487015,3.8759995c5.2142944,1.2675018,7.9272003,3.1347046,7.9272003,7.2226028v0.0702972
		c0,4.615303-3.6289062,7.3633041-8.8081055,7.3633041C120.9643707,107.0278854,117.4057693,105.7241821,114.4462738,103.0815811z"
		/>
	<path display="inline" fill="#414042" d="M144.1865845,86.0288849h-7.8218079v-4.0156021h20.0121918v4.0156021h-7.8212891
		v20.6464996h-4.3690948V86.0288849z"/>
	<path display="inline" fill="#414042" d="M166.5263672,81.8364868h4.0166016l10.8516083,24.8388977h-4.5801086
		l-2.5009918-5.9541016h-11.6621094l-2.5370941,5.9541016h-4.4394989L166.5263672,81.8364868z M172.7275848,96.8813858
		l-4.2627106-9.8652039l-4.2285004,9.8652039H172.7275848z"/>
	<path display="inline" fill="#414042" d="M185.6279755,82.0132828h10.9920959c3.1006012,0,5.5323029,0.9160004,7.1172028,2.4657974
		c1.3036957,1.3389053,2.0439911,3.1709061,2.0439911,5.3203049v0.0702972c0,4.0518036-2.4316864,6.482399-5.8837891,7.4697037
		l6.6581879,9.3359985h-5.1083984l-6.0596008-8.5967026h-5.4257965v8.5967026h-4.3338928V82.0132828z M196.3036652,94.238884
		c3.1006012,0,5.0733032-1.6211014,5.0733032-4.1221008v-0.0712967c0-2.6416016-1.9023895-4.0869064-5.1083832-4.0869064h-6.3067169
		v8.280304H196.3036652z"/>
	<path display="inline" fill="#414042" d="M217.0595856,86.0288849h-7.8213196v-4.0156021h20.0117035v4.0156021h-7.8213043
		v20.6464996h-4.3690796V86.0288849z"/>
	<path display="inline" fill="#414042" d="M233.4472656,96.2114868v-14.198204h4.3339996v14.0223999
		c0,4.580101,2.360321,7.0458984,6.2363129,7.0458984c3.8398895,0,6.2001953-2.3251953,6.2001953-6.8700943v-14.198204h4.3339996
		v13.9872971c0,7.3633041-4.157196,11.0625-10.6054993,11.0625
		C237.5341644,107.0630798,233.4472656,103.363884,233.4472656,96.2114868z"/>
	<path display="inline" fill="#414042" d="M260.5107727,82.0132828h9.7246094c5.7421875,0,9.3710938,3.2762985,9.3710938,8.2441025
		v0.0702972c0,5.5313034-4.4385071,8.4208984-9.8643188,8.4208984h-4.8973999v7.9268036h-4.3339844V82.0132828z
		 M269.882782,94.8374863c3.2763977,0,5.3203735-1.8320007,5.3203735-4.4043045v-0.0702972
		c0-2.8887024-2.0791016-4.4043045-5.3203735-4.4043045h-5.0380249v8.8789062H269.882782z"/>
	<path display="inline" fill="#414042" d="M282.3935852,103.0815811l2.6073914-3.1006012
		c2.3603821,2.0440063,4.7216797,3.2070999,7.7861023,3.2070999c2.6777954,0,4.3692017-1.2333984,4.3692017-3.1005936v-0.0713043
		c0-1.7606964-0.9862976-2.7128983-5.5664062-3.7695007c-5.25-1.2686005-8.2090149-2.8183975-8.2090149-7.3632965v-0.0703049
		c0-4.2284927,3.522522-7.1523972,8.4199219-7.1523972c3.593811,0,6.4482727,1.0918045,8.9491882,3.1006012l-2.3251953,3.2763977
		c-2.219696-1.6562958-4.4393921-2.5371017-6.6943054-2.5371017c-2.5371094,0-4.0166016,1.3037033-4.0166016,2.9248047v0.0702972
		c0,1.902298,1.1278992,2.7480011,5.8486023,3.8759995c5.2149048,1.2675018,7.9277954,3.1347046,7.9277954,7.2226028v0.0702972
		c0,4.615303-3.6289062,7.3633041-8.8085938,7.3633041C288.9120789,107.0278854,285.3534546,105.7241821,282.3935852,103.0815811z"
		/>
</g>
</svg>
