<?xml version="1.0" encoding="utf-8"?>
<!-- Generator: Adobe Illustrator 17.0.0, SVG Export Plug-In . SVG Version: 6.00 Build 0)  -->
<svg version="1.2" baseProfile="tiny" xmlns="http://www.w3.org/2000/svg" xmlns:xlink="http://www.w3.org/1999/xlink" x="0px"
	 y="0px" width="2834.6501465px" height="690.197998px" viewBox="-0.0001222 1072.2259521 2834.6501465 690.197998"
	 xml:space="preserve">
<g id="Ebene_2" display="none">
	<rect x="-247.4803467" y="670.3359985" display="inline" fill="#314563" width="3317.3364258" height="1361.7276611"/>
</g>
<g id="Ebene_1">
	<g>
		<path fill="#F2EDE3" d="M2283.5800781,1512.5183105c0,136.8649902,90.654541,249.6607666,275.5415039,249.6607666
			c184.9001465,0,275.5283203-112.7957764,275.5283203-249.6607666c0-136.8582764-90.6281738-258.5006104-275.5283203-258.5006104
			C2374.2346191,1254.0177002,2283.5800781,1375.6600342,2283.5800781,1512.5183105L2283.5800781,1512.5183105z
			 M2738.579834,1512.5183105c0,86.0897217-48.0349121,173.5262451-179.458252,173.5262451
			c-131.4099121,0-179.4584961-87.4365234-179.4584961-173.5262451c0-86.1021729,40.3693848-182.340332,179.4584961-182.340332
			C2698.4748535,1330.1779785,2738.579834,1426.4161377,2738.579834,1512.5183105L2738.579834,1512.5183105z"/>
		<path fill="#F2EDE3" d="M2237.234375,1465.4179688v-393.1920166h-90.6223145v264.1027832l0,0
			c-36.2614746-51.6586914-111.4929199-82.0396729-182.1916504-82.0396729
			c-143.2099609,0-271.6606445,101.7182617-271.6606445,261.2340088c0,159.5218506,124.6530762,246.6560059,267.8688965,246.6560059
			C2230.7541504,1762.1790771,2237.9111328,1550.7205811,2237.234375,1465.4179688L2237.234375,1465.4179688z
			 M1788.74646,1515.5230713c0-108.7596436,59.9829102-184.0814209,185.9836426-183.043457
			c115.4005127,0.947998,175.241333,87.5599365,175.241333,177.8658447
			c0,81.3696289-54.2895508,175.6990967-177.5562744,175.6990967
			C1850.0704346,1686.0445557,1788.74646,1605.255249,1788.74646,1515.5230713L1788.74646,1515.5230713z"/>
		<path fill="#F2EDE3" d="M95.4319458,1530.7523193c6.2670212,82.3433838,58.4287872,156.2145996,171.8563843,156.2145996
			c136.9745178,0,167.4394226-114.4338379,167.4394226-203.3730469c0-24.5267334,0-403.3341064,0-403.3341064h91.3055115
			v388.7625732c0.6708374,84.5544434-2.6561279,293.4016113-270.4279175,293.4016113
			c-136.729538,0-247.6231537-84.168335-255.605484-231.6716309H95.4319458L95.4319458,1530.7523193z"/>
		<polygon fill="#F2EDE3" points="614.862915,1753.9061279 705.4851685,1753.9061279 705.4851685,1352.2030029 
			614.862915,1352.2030029 		"/>
		<rect x="615.0372314" y="1205.6343994" fill="#F2EDE3" width="90.6222076" height="90.6222"/>
		<path fill="#F2EDE3" d="M1462.1008301,1262.7480469c-90.6221924,0-148.6383057,33.5344238-192.1343994,87.9205322
			c-38.0670166-62.5421143-99.7004395-87.9205322-161.3532715-87.9205322l-3.3718262,0.019165l-2.3796387-0.019165
			c-90.6280518,0-157.2134399,35.2879639-200.6964111,89.6682129
			c-11.7667847-52.7355957-59.131897-76.8046875-105.6578369-79.3519287v90.7833252
			c33.6696777-0.019165,35.3520508,49.6343994,35.3520508,103.3695068v286.7927246h90.6419067v-287.3282471
			c0-34.4500732,11.0512085-61.4077148,29.3947144-81.498291c0,0,2.9915161-3.4946289,5.7836914-5.8867188
			c28.8922119-27.3254395,72.5296631-40.1367188,119.2304688-40.3948975h1.4829102
			c58.3515625,0.4449463,112.7244873,27.0091553,112.7244873,113.2922363v301.815918h1.4829102h89.1392822h1.489502v-304.9626465
			c0.2126465-67.8747559,78.7774658-110.1455078,154.4089355-110.1455078
			c58.8737793,0,114.0916748,26.2677002,114.0916748,113.2922363v301.815918h90.5318604v-323.5767822
			C1642.2618408,1285.4182129,1510.0847168,1262.7480469,1462.1008301,1262.7480469z"/>
	</g>
</g>
</svg>
