<?xml version="1.0" encoding="utf-8"?>
<!-- Generator: Adobe Illustrator 17.0.0, SVG Export Plug-In . SVG Version: 6.00 Build 0)  -->
<svg version="1.2" baseProfile="tiny" id="Ebene_1" xmlns="http://www.w3.org/2000/svg" xmlns:xlink="http://www.w3.org/1999/xlink"
	 x="0px" y="0px" width="1024.0009766px" height="320.7409363px" viewBox="0 351.6289978 1024.0009766 320.7409363"
	 xml:space="preserve">
<g id="icomoon-ignore">
</g>
<path fill="#F2EDE3" d="M714.5360107,475.3859863c1.2420044-0.3630066,0.3629761-3.4389954-0.8980103-3.0190125
	c-131.1260376,23.4049988-265.6919861,8.6549988-398.1359863,3.9549866c-0.8599854,0-2.5599976-0.9360046-2.5599976,0.8410034
	c0,2.178009,1.2609863,1.7000122,2.5599976,2.178009c66.7000122,6.9159851,133.3619995,12.553009,200.4440308,14.7120056
	c67.0440063,2.1390076,134.0300293-0.0010071,198.5910034-18.6669922l0,0l0,0l0,0H714.5360107z M294.2940063,672.3519897
	v-11.2349854h42.4729919c4.6809998,0,9.4960022-0.4580078,14.2340088-0.8410034
	c2.178009-0.4780273,3.9549866-0.9169922,6.1329956-1.8150024c2.1019897-0.4400024,3.401001-1.2800293,5.1400146-1.6430054
	c3.0379944-1.7769775,5.5979919-3.9550171,7.776001-6.9550171c1.7579956-3.0949707,2.5979919-6.5529785,2.5979919-10.8720093
	v-38.8619995c0-4.8150024-0.821991-8.2540283-2.5979919-11.3109741c-2.1589966-3.0189819-4.7770081-5.1970215-7.776001-6.4769897
	c-6.9159851-3.0189819-15.552002-4.3179932-25.4880066-4.3179932h-42.4729919v-11.75h44.1549988
	c20.7879944,0,35.0220032,3.4769897,43.3139954,9.5720215c7.7380066,6.4959717,11.6929932,16.3930054,11.6929932,29.4050293
	v28.6209717c0,12.9160156-3.973999,22.4689941-11.6929932,28.90802c-8.2919922,6.59198-22.526001,9.5720215-43.3139954,9.5720215
	l-44.1740112,0.0009766V672.3519897z M713.6380005,450.3569946c1.7390137-0.4580078,1.7390137-3.4580078,0-3.4580078
	c-131.9290161,9.0950012-265.2900085,3.4580078-398.1359863,2.178009c-1.2799988,0-2.5599976-0.5159912-2.5599976,1.2609863
	c0,1.6820068,1.2609863,1.6820068,2.5599976,1.6820068c66.2600098,4.3370056,132.4450073,7.3940125,199.125,8.6549988
	C581.2890015,461.973999,647.8740234,461.6099854,713.6380005,450.3569946L713.6380005,450.3569946L713.6380005,450.3569946
	L713.6380005,450.3569946z M713.6380005,424.7730103c1.7390137,0,1.7390137-3.4580078,0-3.4580078
	c-132.3870239-5.6170044-265.6919861-1.6820068-398.1359863,0c-1.2799988,0-2.5599976,0.4970093-2.5599976,2.1589966
	c0,1.2990112,1.2609863,1.2990112,2.5599976,1.2990112C447.9470215,426.9320068,581.2890015,430.9060059,713.6380005,424.7730103
	L713.6380005,424.7730103L713.6380005,424.7730103L713.6380005,424.7730103z M713.6380005,399.3240051
	c0.8980103,0,2.1400146-0.9549866,1.7390137-1.7770081c-0.4780273-0.8410034-1.2800293-1.2990112-1.7390137-1.2990112
	c-65.78302-11.2529907-131.9290161-12.0939941-199.0109863-10.7569885
	c-66.6809998,1.2799988-132.8840027,4.7770081-199.125,9.0759888c-1.2799988,0-2.5599976,0-2.5599976,1.6619873
	c0,1.7579956,1.2609863,1.3179932,2.5599976,1.3179932c132.8649902-1.3380127,266.2080078-6.9559937,398.1359863,1.776001l0,0l0,0
	l0,0V399.3240051z M713.197998,374.1990051c1.7009888,0,3.0380249-2.6170044,1.7009888-3.1140137
	c-64.9229736-18.9909973-132.8839722-21.1700134-200.2910156-18.552002
	c-67.1199951,2.1589966-133.7440186,7.2980042-200.0039978,14.7309875c-1.7009888,0-2.1210022,2.1400146-1.2609863,3.0190125
	c0.4389954,0.4580078,1.2609863,0,2.1210022,0c66.2799988-3.8399963,132.8840027-6.4389954,199.1450195-8.6170044
	c66.6810303-2.178009,133.2659912,0.821991,198.5910034,12.5339966l0,0l0,0l0,0L713.197998,374.1990051z M429.776001,672.3519897
	h19.8900146v-93.0469971l135.8840332,93.0469971h29.5189819V566.2550049h-19.3930054v93.0859985l-136.0169983-93.0859985
	h-29.8250122l-0.0570068,106.0969849H429.776001z M655.6500244,671.8549805h150.6340332v-11.5969849H676.3800659v-36.8179932
	h123.7890015v-11.7319946H676.3800659v-33.7230225h129.0249634v-11.7689819H655.6500244V671.8549805z M838.7269897,671.8549805
	h19.9279785v-92.5700073l135.9030151,92.5700073h29.4429932V566.2550049h-20.0040283v93.0859985l-135.4439697-93.0859985
	h-29.8439941l0.0189819,105.5999756H838.7269897z M294.2940063,566.2739868v11.75h-41.9759979
	c-10.3939972,0-18.5899963,1.2800293-25.4689941,4.3179932c-3.0950012,1.2800293-5.6750031,3.4580078-7.8139954,6.4769897
	c-1.7200012,3.0570068-3.0379944,6.5150146-3.0379944,11.3109741v38.8619995c0,4.3179932,1.3370056,7.776001,3.0379944,10.8709717
	c2.1399994,3,4.7189941,5.1779785,7.8139954,6.9550171c3.401001,1.6619873,7.3179932,2.5410156,11.6170044,3.4580078
	c2.1589966,0,4.3179932,0.401001,6.9360046,0.401001c2.1210022,0.4580078,4.7380066,0.4580078,6.9160004,0.4580078h41.9960022
	v11.2349854h-44.173996c-20.2910004,0-34.6009979-3-42.7599945-9.5720215
	c-8.2350006-6.4390259-12.1900024-16.0109863-12.1900024-28.90802v-28.6019897
	c0-13.0109863,3.9550018-22.9279785,12.1900024-29.4050293c8.1580048-6.0949707,22.4689941-9.5720215,42.7599945-9.5720215
	l44.155014-0.0380249L294.2940063,566.2739868z M0,671.5300293h20.7880001V622.618042h24.6089993l106.9380035,48.9119873h36.8180084
	l0.3820038-0.4970093l-121.1340027-54.052002l111.197998-49.7529907l-0.4199982-0.4400024h-34.1809998L47.155014,611.382019
	H20.8270149v-44.5939941H0.0010147v104.7410278L0,671.5300293z"/>
</svg>
