<?xml version="1.0" encoding="utf-8"?>
<!-- Generator: Adobe Illustrator 17.0.0, SVG Export Plug-In . SVG Version: 6.00 Build 0)  -->
<svg version="1.2" baseProfile="tiny" xmlns="http://www.w3.org/2000/svg" xmlns:xlink="http://www.w3.org/1999/xlink" x="0px"
	 y="0px" width="99.2123947px" height="66.6138px" viewBox="0 0 99.2123947 66.6138" xml:space="preserve">
<g id="_x31__base" display="none">
	<g id="Ebene_6" display="inline">
		<rect x="-15.3383999" y="-12.2084999" fill="#032E49" width="144.5" height="90"/>
	</g>
</g>
<g id="_x33__typeface">
	<g>
		<polygon fill="#F2EDE3" points="27.6675205,35.7299767 26.5785923,39.1615562 28.831522,39.1615562 27.7270298,35.7299767 		"/>
		<path fill="#F2EDE3" d="M38.5298233,11.5883751c0-0.9550781-0.4327393-1.3886719-1.4766235-1.3886719h-1.0449219v2.8652344
			h1.0742188C38.1117935,13.0649376,38.5298233,12.5727501,38.5298233,11.5883751z"/>
		<path fill="#F2EDE3" d="M51.7621841,22.4497032h-1.0429688v2.8651733h1.0741577
			c1.0292969,0,1.4473267-0.4920654,1.4473267-1.4765015C53.2406998,22.883297,52.807106,22.4497032,51.7621841,22.4497032z"/>
	</g>
</g>
<g id="_x32__gradient_green_base">
	<path fill="#F2EDE3" d="M67.4487076,58.1254845V42.2885704v-5.4384766v-2h2h21.2679443
		c-0.0046997-13.8023071-0.0101318-31.8287354-0.0101318-34.8496094H7.6147251
		c-3.9853516,0-7.6162109,3.0214844-7.6162109,7.0224609l0.015625,44.1044312c0,4,0,4.9981079,0,6.9981079H67.4487076z
		 M30.1000767,43.070797l-0.6875-2.0438843h-3.4013672l-0.6416016,2.0438843h-2.6113281l3.6260376-10.3397827h3.0888062
		l3.5800762,10.3397827H30.1000767z M28.8617954,24.5238609v2.0449219H25.519022v2.1777954h4.4169922v2.0742188h-7.296936
		V20.4810143h7.147522v2.0741577H25.519022v1.968689H28.8617954z M37.3959732,24.8969688v2.0292969h-3.2978516v3.8945312h-2.9092388
		V20.4810143h7.1318951v2.0741577h-4.2226562v2.3417969H37.3959732z M37.1722794,43.2504845
		c-1.4472046,0-2.656189-0.2246094-3.4022827-0.6123047v-2.1182251c0.9102173,0.328125,1.8651733,0.5820312,3.0585938,0.5820312
		c1.1641235,0,1.6113281-0.343689,1.6113281-0.9707031c0-0.5966187-0.2684937-0.7910156-1.2676392-0.984314l-0.7763062-0.1494141
		c-1.6416016-0.3134766-2.6552734-1.0439453-2.6552734-3.2080688c0-1.9550171,1.2227173-3.2382202,3.8496094-3.2382202
		c1.640564,0,2.4608765,0.2539062,3.0585938,0.5371094v2.0897827c-0.7167969-0.2538452-1.6123047-0.4921875-2.7910156-0.4921875
		c-0.9248047,0-1.4024048,0.2832031-1.4024048,0.8799438c0,0.5517578,0.2988892,0.7607422,1.2090454,0.9403687l0.7753906,0.1484985
		c1.8202515,0.343689,2.8349609,1.0742188,2.8349609,3.1776733C41.2748795,42.0415001,39.8578873,43.2504845,37.1722794,43.2504845z
		 M56.8656998,20.4810143h8.3397827v2.0741577h-2.7147827v8.265625h-2.9102173v-8.265625h-2.7147827V20.4810143z
		 M47.8403091,20.4810143h4.3554688c2.6113281,0,3.9238281,1,3.9238281,3.2225952
		c0,1.4179688-0.640625,2.1483765-1.7147827,2.6112671v0.0596313l2.3125,4.4462891h-3.0137329l-1.8964844-3.7598267h-1.0585938
		v3.7598267h-2.9082031V20.4810143z M45.5864029,24.5238609v2.0449219H42.244606v2.1777954h4.4169922v2.0742188h-7.2958984
		V20.4810143h7.1464844v2.0741577H42.244606v1.968689H45.5864029z M33.1283951,8.2309532h4.3563843
		c2.6113892,0,3.9248047,1,3.9248047,3.2226562c0,1.4179688-0.6416016,2.1483765-1.7157593,2.6112671v0.0596313l2.3125,4.4462891
		h-3.0136108l-1.8945923-3.7598267h-1.0605469v3.7598267h-2.9091797V8.2309532z M24.5785923,8.2309532h7.147522v2.0742188
		h-4.2676392v1.96875h3.3427124v2.0448608h-3.3427124v2.1777954h4.4170532v2.0742188h-7.296936V8.2309532z M12.6274204,8.2309532
		l1.3573608,6.5195312h0.0606079l1.656189-6.5195312h2.3282471l1.640564,6.5195312h0.0596313l1.4472046-6.5195312h2.5224609
		L21.222086,18.570797h-2.9090576l-1.5528564-6.3710938h-0.0448608l-1.6113281,6.3710938h-2.9237671L9.7181797,8.2309532H12.6274204
		z M21.1177158,20.4810143V30.820797h-2.9102173V20.4810143H21.1177158z M17.2231236,28.7465782v2.0742188h-6.8340454V20.4810143
		h2.9102173v8.265564H17.2231236z M12.6274204,32.7310143l1.3573608,6.5204468h0.0606079l1.656189-6.5204468h2.3282471
		l1.640564,6.5204468h0.0596313l1.4472046-6.5204468h2.5224609L21.222086,43.070797h-2.9090576l-1.5528564-6.3710938h-0.0448608
		l-1.6113281,6.3710938h-2.9237671L9.7181797,32.7310143H12.6274204z"/>
</g>
<g id="_x34__loupe_shadow" display="none">
	<g id="shadow" display="inline">
		<path fill="#58595B" d="M90.4048004,50.0718002c0.0233994-1.2695999-0.2548981-2.4706993-0.7538986-3.5439987
			c0.3720016,0.9589996,0.5692978,2.0077972,0.5487976,3.1044998c-0.0791016,4.4111977-3.6278992,7.9375-7.9131012,7.8603973
			c-2.5097961-0.044899-4.7177963-1.3202972-6.1054993-3.2529984c1.3516006,2.1386986,3.6836014,3.5732994,6.3496017,3.6211014
			C86.7944031,57.9370003,90.3265991,54.4418983,90.4048004,50.0718002z"/>
		<path fill="#58595B" d="M77.7045975,49.6831017c0.3768997-2.9756012,2.857399-5.1113014,5.5508041-4.7705002
			c1.6201019,0.2030983,2.9345016,1.2655983,3.6493988,2.7226982c-0.6913986-1.8349991-2.3827972-3.1474991-4.3848038-3.1846008
			c-2.6591949-0.0458984-4.8495941,2.172802-4.902298,4.955101c-0.0048981,0.2910004,0.0262985,0.5722008,0.0663986,0.850502
			C77.6899033,50.0648994,77.6801987,49.8773994,77.7045975,49.6831017z"/>
		<path fill="#58595B" d="M93.4720993,59.8148994c-0.1932983,0.782299-0.8583984,1.4151001-1.7401962,1.4794998
			c-0.155304,0.0137024-0.25-0.1014977-0.25-0.1014977l-3.8867035-4.0284004l-0.0009995,0.0009995V57.7388l3.8554993,4.0126991
			c0,0,0.0937042,0.1152,0.2490005,0.1015015c1.0518036-0.0770988,1.8036957-0.9570007,1.8036957-1.9414024
			C93.5023956,59.8773994,93.4868011,59.8451996,93.4720993,59.8148994z"/>
	</g>
</g>
<g id="_x35__loupe">
	<g>
		<path fill="#F2EDE3" d="M82.5199966,44.4506798c-2.6591797-0.0458984-4.8496094,2.1727905-4.9022827,4.9550781
			c-0.0488892,2.7822266,2.0664062,5.078125,4.7215576,5.1279297c2.6573486,0.0449219,4.8516235-2.1708984,4.9004517-4.9570312
			C87.2905045,46.7935143,85.1772232,44.4995079,82.5199966,44.4506798z"/>
		<path fill="#F2EDE3" d="M93.3334732,36.8500938H69.4487076c0,3,0,2.2265625,0,5.4384766v24.3251915c2,0,2.6270142,0,5.8692017,0
			h18.015564c3.2441406,0,5.8789062-2.8447838,5.8789062-6.0556602V42.2885704
			C99.2123795,39.0766563,96.5776138,36.8500938,93.3334732,36.8500938z M74.659584,49.3529625
			c0.0791016-4.4140015,3.6260376-7.9384766,7.9130859-7.8612671c4.2852173,0.0770874,7.7080078,3.727478,7.6270142,8.140564
			c-0.0791016,4.4112549-3.6278687,7.9375-7.9130859,7.8604126C78.0013809,57.4165001,74.5765762,53.7661095,74.659584,49.3529625z
			 M91.7319107,61.2943687c-0.1553345,0.0137329-0.25-0.1015015-0.25-0.1015015l-3.8876953-4.0292969
			c0.7763672-0.5722656,1.4804688-1.2705078,2.0546875-2.0673828l3.8095703,4.078125c0,0,0.0771484,0.0907593,0.0771484,0.1786499
			C93.5356216,60.3363609,92.7836685,61.2172813,91.7319107,61.2943687z"/>
	</g>
</g>
</svg>
